<?xml version="1.0" encoding="UTF-8" standalone="no"?>
<!-- Created with Inkscape (http://www.inkscape.org/) -->
<svg id="svg4136" xmlns:rdf="http://www.w3.org/1999/02/22-rdf-syntax-ns#" xmlns="http://www.w3.org/2000/svg" height="1440" viewBox="0 0 2560 1440" width="2560" version="1.1" xmlns:cc="http://creativecommons.org/ns#" xmlns:dc="http://purl.org/dc/elements/1.1/">
 <metadata id="metadata4142">
  <rdf:RDF>
   <cc:Work rdf:about="">
    <dc:format>image/svg+xml</dc:format>
    <dc:type rdf:resource="http://purl.org/dc/dcmitype/StillImage"/>
    <dc:title/>
   </cc:Work>
  </rdf:RDF>
 </metadata>
 <defs id="defs4140">
  <filter id="filter4190" style="color-interpolation-filters:sRGB" height="1.083" width="1.0636" y="-.041493" x="-.031792">
   <feGaussianBlur id="feGaussianBlur4192" stdDeviation="12.098259"/>
  </filter>
 </defs>
 <g id="layer2">
  <path id="path4165" d="m1537 958.61c-15.044-7.6621-10.962-33.912 8.0493-51.753 10.083-9.4624 21.982-12.908 28.061-8.1259 3.1771 2.4991 5.6292 6.9454 5.5769 10.112-0.059 3.5395-5.4704 15.3-7.0406 15.3-0.7669 0-2.0259-1.3174-2.7976-2.9275-1.2522-2.6126-1.173-3.6422 0.7365-9.571 3.1211-9.6906 2.9882-10.379-1.8782-9.7259-8.6353 1.1582-22.182 13.291-27.972 25.053-8.2572 16.773-5.4031 32.444 5.2334 28.736 4.6215-1.611 14.757-11.34 14.757-14.165 0-0.4537-2.8842-0.5555-6.4093-0.2264-6.0125 0.5615-6.5763 0.4316-9.1061-2.0982-1.4832-1.4832-2.5278-2.8656-2.3214-3.072 0.6762-0.6762 19.724-3.5035 23.604-3.5035 2.0836 0 4.7884 0.70052 6.0108 1.5567 2.6892 1.8835 3.0119 5.4859 0.4725 5.273-4.5627-0.3823-6.0627 0.1706-5.5703 2.0535 0.2709 1.0357-0.2726 3.3982-1.2078 5.25-5.61 11.109-18.774 16.634-28.198 11.834zm159.18 0.6816c-11.28-5.1182-13.674-20.809-5.6418-36.969 7.0349-14.153 18.956-24.868 29.222-26.266 3.9388-0.53616 5.0632-0.2109 9.4695 2.739 7.1299 4.7734 8.748 8.4062 8.1721 18.347-0.2713 4.6834-1.3494 10.341-2.6006 13.646-4.259 11.251-14.315 23.83-21.98 27.493-4.7367 2.2643-12.798 2.7534-16.642 1.0097zm12.277-6.2058c7.5073-4.9189 16.189-17.25 19.986-28.385 2.5651-7.5241 3.0603-18.618 0.9593-21.492-6.0931-8.3328-28.923 11.555-34.687 30.217-5.4945 17.789 1.445 27.717 13.742 19.66zm25.473 6.357c-2.2947-2.2947-1.3357-9.0733 2.3807-16.828 5.1525-10.752 12.602-22.972 14.003-22.972 1.4363 0 2.4163 2.2613 2.4163 5.5752 0 2.3912 0.039 2.382 4.5769-1.082 5.8735-4.4833 8.9108-5.2667 11.463-2.9567 3.3533 3.0347 2.5114 7.7621-3.1416 17.641-5.391 9.4206-7.2473 16.355-4.7939 17.909 2.0953 1.3268 2.526 1.1772 6.3986-2.2231 4.4931-3.945 7.9112-9.7388 10.592-17.954 1.1502-3.5246 3.9565-10.008 6.2362-14.408 3.9204-7.5667 13.81-21.713 17.073-24.421 2.3212-1.9264 5.3545-0.33887 6.6076 3.4581 2.516 7.6237-4.7063 21.473-17.049 32.692-6.1598 5.5993-7.0602 6.9012-8.4137 12.165-1.945 7.5637-1.2628 10.606 2.3784 10.606 4.2743 0 10.554-6.1171 14.176-13.808 4.7094-10.001 12.114-22.192 13.48-22.192 0.6613 0 1.4755 0.7118 1.8093 1.5818 1.341 3.4945 0.3684 7.3003-3.8946 15.241-7.4262 13.832-8.8314 20.178-4.4681 20.178 3.4483 0 7.9307-5.1221 11.906-13.605 5.2932-11.295 13.159-24.395 14.648-24.395 1.4363 0 2.4163 2.2613 2.4163 5.5752 0 2.3912 0.039 2.382 4.5769-1.082 5.8735-4.4833 8.9108-5.2667 11.463-2.9567 3.3589 3.0398 2.512 7.761-3.1748 17.699-5.7797 10.1-7.3966 16.963-4.2781 18.16 3.864 1.4828 12.278-7.9797 14.795-16.639 3.0876-10.621 13.033-20.756 20.368-20.756 4.3587 0 10.25 5.4254 10.25 9.4398 0 3.8746-3.4984 10.076-7.3352 13.002-3.6268 2.7664-9.2237 3.3996-12.858 1.4547-2.7038-1.447-3.7714 0.2012-3.7918 5.8533-0.041 11.484 11.014 10.77 21.871-1.4121 5.0505-5.6665 5.1135-5.7005 5.1135-2.7654 0 4.1106-4.8551 9.6781-11.195 12.837-8.8082 4.3894-17.664 3.0241-21.399-3.2991l-1.7129-2.8997-2.3351 2.7751c-4.881 5.8008-14.474 7.8982-18.358 4.014-4.2093-4.2093-2.2913-13.174 5.5965-26.159 1.9593-3.2254 3.4099-6.322 3.2235-6.8812-0.626-1.8781-9.6503 4.861-14.098 10.528-2.423 3.0872-6.5263 9.9127-9.1184 15.168-4.5129 9.1492-4.7916 9.4835-6.5671 7.8766-1.7015-1.5398-2.1048-1.5485-4.8955-0.1053-4.8869 2.5271-9.5643 2.0463-12.355-1.2699l-2.3919-2.8426-3.4188 2.3426c-6.2726 4.298-16.975 2.2175-16.975-3.3 0-1.123-1.0192-0.6697-3.6111 1.606-6.2349 5.4743-13.655 6.7701-17.389 3.0366-4.2093-4.2093-2.2913-13.174 5.5965-26.159 1.9593-3.2254 3.4099-6.322 3.2235-6.8812-0.626-1.8781-9.6503 4.861-14.098 10.528-2.423 3.0872-6.5029 9.8652-9.0664 15.062-2.5635 5.1971-4.7946 9.4493-4.9581 9.4493-0.1634 0-0.8371-0.54-1.4971-1.2zm141.69-22.324c5.739-5.1848 9.2094-13.477 5.6405-13.477-3.9755 0-15.896 14.518-13.283 16.177 2.213 1.4052 3.6658 0.8918 7.6421-2.7005zm-75.101-20.313c1.6389-3.1151 3.2766-6.7888 3.6392-8.1638 0.5952-2.2571 0.339-2.1467-2.6366 1.1361-3.3688 3.7166-12.236 17.974-13.335 21.44-1.1159 3.5204 9.3046-8.6578 12.332-14.413zm94.237 41.893c-1.4384-2.6876 0.6234-6.9322 3.7482-7.7164 4.2599-1.0692 5.7638 4.1167 2.2212 7.6593-2.5266 2.5266-4.637 2.5468-5.9694 0.057zm-277.39 0.249c-1.191-1.191-0.6479-6.2625 1.1881-11.095 1.5145-3.9858 1.6002-5.0225 0.5-6.0502-2.0984-1.9602-1.5598-3.1606 1.4224-3.1699 2.3315-0.01 3.4282-1.1078 7.2065-7.2313 6.203-10.053 17.91-25.322 23.88-31.147 5.6989-5.5595 7.4466-5.5728 9.744-0.0743 1.3993 3.3488 1.309 4.2008-1.4743 13.91-1.6307 5.6884-3.4957 13.041-4.1444 16.338-1.1032 5.6075-1.0431 6.1318 0.9292 8.1041 2.8201 2.8201 2.6568 3.9128-0.6413 4.2923-2.6717 0.3074-2.7742 0.5513-3.6001 8.5664-0.4675 4.5375-1.2295 8.25-1.6933 8.25-2.2108 0-3.9566-4.7628-3.9566-10.794v-6.3495l-5.75 0.6075c-15.421 1.6294-13.905 0.9008-17.745 8.5263-3.5048 6.9596-4.714 8.4679-5.8656 7.3163zm30.927-26.196c0.3327-1.9855 1.6541-8.1098 2.9364-13.609 1.2822-5.4997 2.1761-10.155 1.9863-10.344-0.6576-0.65767-21.49 27.21-21.49 28.748 0 0.3715 3.5914 0.2572 7.9809-0.2541l7.981-0.9295 0.6049-3.6101zm-67.223 24.343c-1.9194-5.002 5.1683-22.879 16.888-42.594l4.5418-7.6407-6.33-0.40306c-4.3361-0.2761-6.9777-0.9893-8.3865-2.2643-3.3896-3.0675-2.6042-4.5512 2.409-4.5512 2.4561 0 9.5436-0.71193 15.75-1.5821 12.255-1.7182 17.005-1.4332 19.908 1.1943 3.3715 3.0511 2.347 4.3868-3.374 4.3988-2.8875 0.006-6.9138 0.28609-8.9474 0.6223-3.1491 0.52065-3.7919 1.0752-4.3344 3.739-0.3504 1.7202-4.5908 10.328-9.4232 19.128s-10.39 19.488-12.35 23.75c-3.5066 7.6244-5.1787 9.2577-6.3507 6.2035zm234.24-38.365c-2.0931-2.3128-1.7564-6.9633 0.6115-8.4455 1.2919-0.80872 2.1777-0.61878 3.75 0.80413 2.2638 2.0487 2.613 4.6484 1.0233 7.6187-1.3127 2.4528-3.1785 2.4606-5.3848 0.0227zm-318.91-58.755c-1.3556-1.3555-0.606-9.4132 1.3333-14.333 1.1-2.7907 2-5.1731 2-5.2942s-2.0151-0.0599-4.478 0.13597c-3.9266 0.31229-4.8654-0.0313-7.6247-2.7906-4.6795-4.6796-3.8323-9.4204 3.9546-22.128 6.461-10.544 6.2744-12.174-0.757-6.6098-6.3501 5.025-12.416 12.976-17.766 23.288-4.2862 8.2613-4.9976 9.14-6.329 7.8172-2.1726-2.1585-1.7068-9.1308 0.9632-14.418 1.2499-2.475 4.2445-7.6878 6.6546-11.584 2.4102-3.8962 4.3822-7.6202 4.3822-8.2757 0-2.2841-5.5186 1.5901-11.743 8.2437-5.1928 5.5511-11.39 15.767-15.571 25.672-0.4839 1.1461-0.9436 0.99284-2.228-0.74271-1.617-2.1849-1.6208-2.1851-4.7883-0.25374-4.4146 2.6918-9.7661 2.5316-12.496-0.37402-4.2962-4.5731-1.9686-13.855 7.442-29.675 4.719-7.9332 6.6021-9.4899 7.7767-6.429 1.341 3.4945 0.3684 7.3003-3.8946 15.241-7.4819 13.936-8.8359 20.178-4.3767 20.178 3.6843 0 8.7274-6.42 15.318-19.5 7.5573-14.999 10.804-19.595 12.599-17.837 0.6649 0.65113 1.0241 2.8812 0.8158 5.065l-0.3721 3.9017 5.187-4.2249c2.8529-2.3237 6.1023-4.5154 7.221-4.8704 3.1095-0.98691 5.9507 1.1014 6.6628 4.8973l0.6393 3.4078 4.4807-3.4202c8.3492-6.3731 12.328-5.9538 12.325 1.299 0 3.9775-0.8628 6.2105-5.1225 13.281-5.5924 9.2834-7.0641 14.769-4.5273 16.874 3.7415 3.1051 8.2441-1.5982 16.553-17.291 10.102-19.079 14.036-23.756 14.92-17.739l0.3216 2.1879 2.5632-2.0162c3.8802-3.0521 9.6-2.7114 12.318 0.7338 1.8089 2.2931 2.1059 3.7469 1.7878 8.75-0.4526 7.1176-5.2804 18.265-10.119 23.365-3.0892 3.256-3.1116 3.341-0.6926 2.6233 6.926-2.0548 9.6391-4.6043 18.372-17.264 4.9998-7.2479 5.6307-8.6921 5.0798-11.629-1.0235-5.4557 5.1287-14.461 8.8925-13.017 1.8999 0.72904 2.0629 2.5138 0.6726 7.3616-0.5406 1.8849-0.7798 3.6303-0.5315 3.8786 0.2483 0.24827 2.9472-0.81136 5.9976-2.3547 5.4162-2.7403 5.5804-2.7611 6.9997-0.88517 2.6085 3.4475 1.7578 6.7502-3.475 13.491-5.9694 7.6894-8.7716 14.959-7.1435 18.532 1.282 2.8136 2.8176 3.0097 6.0174 0.76848 3.2384-2.2682 8.1137-10.244 8.1402-13.316 0.054-6.3352 8.2023-18.509 14.336-21.42 5.6778-2.6943 8.4834-2.1391 12.796 2.5319 3.2292 3.4978 3.8464 4.8618 3.8464 8.5 0 2.7833 0.4472 4.345 1.25 4.3654 0.7634 0.0194 0.5688 0.54895-0.5 1.3602-0.9625 0.73064-1.75 1.8592-1.75 2.508 0 1.8282-3.9965 9.2672-6.7692 12.6-3.9366 4.7317-7.2808 6.4862-12.377 6.4934-4.0613 0.006-5.0331-0.43377-7.7166-3.4901-2.86-3.2574-3.14-3.3662-4.0909-1.5894-1.4945 2.7925-7.3279 6.0861-10.779 6.0861-1.6484 0-4.1482-0.90548-5.5552-2.0122-5.3415-4.2017-4.3965-11.827 2.7946-22.551 2.4463-3.6481 3.8152-6.3901 3.0419-6.0934-0.7734 0.29675-2.9078 0.82127-4.7433 1.1656-2.9953 0.56193-3.9666 1.7205-9.4807 11.309-3.3789 5.8754-6.8079 12.691-7.62 15.145-1.7301 5.2282-3.1054 6.0492-4.7719 2.8487-0.6617-1.2709-1.2981-2.4292-1.4141-2.5739-0.1161-0.14472-1.8407 0.41778-3.8324 1.25-5.6241 2.3499-14.689 1.9825-18.788-0.76143-1.8689-1.251-3.8421-3.276-4.385-4.5s-1.2522-2.2254-1.5762-2.2254-3.7048 6.5081-7.5129 14.462c-3.8081 7.9544-7.1863 14.479-7.5071 14.5-0.3209 0.0207-0.8834-0.26246-1.25-0.62913zm99.173-27.728c3.1986-2.9745 8.1607-11.291 8.1607-13.678 0-0.62639-1.125-2.4759-2.5-4.11s-2.5-3.6116-2.5-4.3944c0-4.1352-5.9351 1.9956-9.5201 9.834-2.9865 6.5299-3.7674 14.329-1.5706 15.687 1.9279 1.1916 3.9938 0.32192 7.93-3.3385zm-70.038-1.0059c4.7701-5.1749 7.3924-10.019 9.6758-17.874 3.0675-10.552-0.186-12.653-7.7043-4.9758-8.5357 8.716-13.473 22.15-9.5731 26.05 1.9849 1.9849 3.3526 1.409 7.6016-3.2006zm80.198-21.599c0-4.2044-1.4289-5.3747-2.488-2.0378-0.5613 1.7685 0.8693 6.0378 2.0232 6.0378 0.2556 0 0.4648-1.8 0.4648-4zm361.78 30.226-1.1225-2.974-4.0783 1.8522c-7.5383 3.4238-16.374 1.9476-19.769-3.3027-5.5983-8.6579 0.1118-25.472 11.173-32.901 6.0102-4.0365 10.226-3.8924 14.618 0.49963 3.9647 3.9647 4.2961 6.9233 1.4092 12.582-3.8597 7.5658-12.133 11.163-18.202 7.9148-2.7038-1.447-3.7714 0.20114-3.7918 5.8532-0.027 7.6316 5.211 10.232 12.774 6.3416 4.7466-2.4415 7.6699-5.6221 14.636-15.924 4.8769-7.2125 5.5511-8.7755 5.0158-11.629-1.0133-5.4015 5.1648-14.395 8.9032-12.96 1.8999 0.72904 2.0629 2.5138 0.6726 7.3616-0.5406 1.8849-0.7798 3.6303-0.5315 3.8786 0.2483 0.24827 2.9472-0.81136 5.9976-2.3547 5.4162-2.7403 5.5804-2.7611 6.9997-0.88517 2.6085 3.4475 1.7578 6.7502-3.475 13.491-5.9694 7.6894-8.7716 14.959-7.1435 18.532 0.601 1.319 1.7167 2.3983 2.4793 2.3983 2.3099 0 6.507-3.8891 9.252-8.5731 1.4269-2.4348 3.0016-4.4269 3.4993-4.4269 1.6383 0 0.9441 5.2007-1.1454 8.5816-4.2088 6.81-12.248 9.3313-17.238 5.4062-5.3415-4.2017-4.3965-11.827 2.7946-22.551 2.4463-3.6481 3.8152-6.3901 3.0419-6.0934-0.7734 0.29675-2.9078 0.82127-4.7433 1.1656-2.9953 0.56193-3.9666 1.7205-9.4807 11.309-3.3789 5.8754-6.8079 12.691-7.62 15.145-1.804 5.4515-3.4382 6.2026-4.9251 2.2634zm-8.8847-22.749c5.739-5.1848 9.2094-13.476 5.6405-13.476-3.9755 0-15.896 14.518-13.283 16.177 2.213 1.4052 3.6658 0.89182 7.6421-2.7005zm-266.99 22.903c-3.4176-4.119-1.2177-11.52 7.7171-25.964 5.2261-8.4481 5.541-10.067 1.5578-8.0068-5.3841 2.7842-14.829 14.124-19.446 23.346-2.4385 4.8712-4.697 9.5066-5.0189 10.301-0.4787 1.1812-0.863 1.0997-2.1119-0.44783-0.8397-1.0405-1.6555-2.2742-1.8128-2.7416-0.1574-0.46739-2.4999 0.27142-5.2056 1.6418-10.849 5.4949-20.918 1.8488-22.902-8.2932-2.2827-11.67 10.651-30.215 21.072-30.215 4.3587 0 10.25 5.4254 10.25 9.4398 0 3.8746-3.4984 10.076-7.3352 13.002-3.6268 2.7663-9.2237 3.3996-12.858 1.4547-2.7038-1.447-3.7714 0.20114-3.7918 5.8532-0.027 7.6333 5.2149 10.234 12.774 6.3376 5.7274-2.9521 9.4442-7.6225 15.615-19.621 6.8213-13.263 9.9238-17.477 11.634-15.803 0.6649 0.65113 1.0241 2.8812 0.8158 5.065l-0.3721 3.9017 5.187-4.2249c2.8529-2.3237 6.1023-4.5154 7.221-4.8704 3.1095-0.98691 5.9507 1.1014 6.6628 4.8973l0.6393 3.4078 4.4807-3.4202c8.3492-6.3731 12.328-5.9538 12.325 1.299 0 3.9775-0.8628 6.2105-5.1225 13.281-5.5924 9.2834-7.0641 14.769-4.5273 16.874 0.8729 0.7244 2.4579 1.0048 3.6112 0.63875 3.4585-1.0977 8.8226-9.1464 10.056-15.089 2.2508-10.842 12.96-22.423 20.735-22.423 4.3587 0 10.25 5.4254 10.25 9.4398 0 3.8746-3.4984 10.076-7.3352 13.002-3.6268 2.7663-9.2237 3.3996-12.858 1.4547-2.7038-1.447-3.7714 0.20114-3.7918 5.8532-0.027 7.6316 5.211 10.232 12.774 6.3416 5.1179-2.6325 8.4421-6.467 12.216-14.092 5.2355-10.577 12.286-22 13.578-22 1.4363 0 2.4163 2.2613 2.4163 5.5752 0 2.3912 0.039 2.382 4.5769-1.082 5.8735-4.4833 8.9108-5.2667 11.463-2.9567 3.3589 3.0398 2.512 7.761-3.1748 17.699-5.6711 9.91-7.3879 16.967-4.4062 18.111 4.3971 1.6873 9.85-4.9628 18.52-22.587 3.8289-7.783 6.8624-14.197 6.7409-14.252-0.1214-0.0559-1.4582-0.63307-2.9707-1.2826-4.0278-1.7298-3.3733-2.9467 2-3.7184 4.5344-0.65119 4.9146-0.96184 8.3773-6.8438 4.6837-7.9562 6.4112-8.0699 6.2567-0.41169-0.079 3.8984 0.274 5.75 1.095 5.75 1.2472 0 4.521 3.1346 4.521 4.3287 0 0.36919-2.1858 0.67126-4.8573 0.67126h-4.8572l-6.2916 11.59c-8.841 16.287-10.328 21.048-7.9587 25.476 1.5527 2.9012 4.5013 2.3478 8.9619-1.6821 3.3844-3.0576 4.0029-4.2266 4.0029-7.5657 0-2.1722 0.4658-4.8198 1.0352-5.8836 1.2886-2.4079 3.9648-2.5382 3.9648-0.19316 0 2.2221 10.27-13.107 11.843-17.676 1.5807-4.593 3.9642-7.0649 6.8122-7.0649 2.6589 0 2.9007 1.3796 0.8761 5-1.09 1.9492-1.2699 5.3876-0.8168 15.607 0.3746 8.4485 0.1905 14.228-0.5181 16.26l-1.0992 3.1533 2.4561-1.7601c1.3509-0.96805 4.1322-4.2351 6.1807-7.2601 2.7753-4.0981 3.8162-5.0338 4.084-3.6709 0.8899 4.5301-4.0465 12.204-9.7162 15.104-6.9963 3.5785-16.764 2.6841-21.101-1.9322l-2.3691-2.5218-2.5657 2.3884c-3.5221 3.2786-6.4057 4.6328-9.8652 4.6328-3.2571 0-8.2006-3.3592-8.2006-5.5726 0-2.0341-0.6298-1.8192-5.0296 1.7166-5.221 4.1957-12.7 5.1261-15.854 1.9721-4.334-4.334-2.4965-13.144 5.4804-26.275 1.9593-3.2254 3.4099-6.322 3.2235-6.8812-0.626-1.8781-9.6503 4.861-14.098 10.528-2.423 3.0872-6.5218 9.9035-9.1084 15.148-3.948 8.004-4.9366 9.3406-6.1581 8.3269-0.8003-0.6642-1.4551-1.8275-1.4551-2.5852 0-1.7339 0.3707-1.8109-5.4195 1.1266-5.2794 2.6784-12.14 3.2833-15.896 1.4016-1.2014-0.60181-3.1807-2.2765-4.3984-3.7214l-2.2142-2.6272-2.7858 2.5993c-6.3727 5.9458-12.689 6.5944-17.488 1.7959-4.5703-4.5704-3.6801-9.4084 4.0535-22.03 3.4941-5.7023 5.5264-9.9227 4.7782-9.9227-2.1108 0-9.8173 6.5119-14.13 11.94-2.2 2.7688-6.2947 9.3304-9.0993 14.581-4.5783 8.5718-5.2423 9.3747-6.5 7.8589zm145.95-5.13c1.6392-3.1213 2.3553-10.184 1.6493-16.267l-0.69-5.9451-4.9427 7.5715c-5.2224 7.9998-5.3749 9.2021-1.7515 13.809 2.3637 3.005 4.436 3.3058 5.7349 0.83246zm-174.95-17.774c5.739-5.1848 9.2094-13.476 5.6405-13.476-3.9755 0-15.896 14.518-13.283 16.177 2.213 1.4052 3.6658 0.89182 7.6421-2.7005zm88 0c5.739-5.1848 9.2094-13.476 5.6405-13.476-3.9755 0-15.896 14.518-13.283 16.177 2.213 1.4052 3.6658 0.89182 7.6421-2.7005zm-133.89 21.524c-1.2896-1.2896-1.9995-3.3319-1.9986-5.75 0-7.555 5.1173-31.707 7.1471-33.75 0.6609-0.66523 1.6738-0.16702 3.0257 1.4882 2.3961 2.9338 2.2358 5.1331-1.5648 21.459-1.4016 6.021-2.3823 11.113-2.1792 11.316 0.203 0.20302 3.0874-3.5982 6.4098-8.4472 7.316-10.678 19.209-25.499 20.918-26.069 2.1481-0.71605 1.359 3.1764-1.5084 7.44-1.5125 2.249-6.35 8.5281-10.75 13.954-4.4 5.4255-9.5094 12.226-11.354 15.112-3.6542 5.7164-5.1002 6.2929-8.1458 3.2473zm296 0c-1.2896-1.2896-1.9995-3.3319-1.9986-5.75 0-7.555 5.1173-31.707 7.1471-33.75 0.6609-0.66523 1.6738-0.16702 3.0257 1.4882 2.3961 2.9338 2.2358 5.1331-1.5648 21.459-1.4016 6.021-2.3823 11.113-2.1792 11.316 0.203 0.20302 3.0874-3.5982 6.4098-8.4472 7.316-10.678 19.209-25.499 20.918-26.069 2.1481-0.71605 1.359 3.1764-1.5084 7.44-1.5125 2.249-6.35 8.5281-10.75 13.954-4.4 5.4255-9.5094 12.226-11.354 15.112-3.6542 5.7164-5.1002 6.2929-8.1458 3.2473zm-31.896-2.5348c-3.0688-3.4952-3.6147-5.6471-3.1619-12.465 0.5166-7.781 7.9351-19.29 14.416-22.366 5.6778-2.6943 8.4834-2.1391 12.796 2.5319 3.2292 3.4978 3.8464 4.8618 3.8464 8.5 0 2.7833 0.4472 4.345 1.25 4.3654 0.7634 0.0194 0.5688 0.54895-0.5 1.3602-0.9625 0.73064-1.75 1.8592-1.75 2.508 0 1.8282-3.9965 9.2672-6.7692 12.6-3.9366 4.7317-7.2808 6.4862-12.377 6.4934-4.0708 0.006-5.0309-0.43133-7.75-3.5282zm11.736-3.8598c3.1986-2.9745 8.1607-11.291 8.1607-13.678 0-0.62639-1.125-2.4759-2.5-4.11s-2.5-3.6116-2.5-4.3944c0-4.1352-5.9351 1.9956-9.5201 9.834-2.9865 6.5299-3.7674 14.329-1.5706 15.687 1.9279 1.1916 3.9938 0.32192 7.93-3.3385zm10.161-22.605c0-4.2044-1.4289-5.3747-2.488-2.0378-0.5613 1.7685 0.8693 6.0378 2.0232 6.0378 0.2556 0 0.4648-1.8 0.4648-4zm-454.42-10.912c-2.0931-2.3128-1.7564-6.9633 0.6115-8.4455 1.2919-0.80872 2.1777-0.61878 3.75 0.80413 2.2638 2.0487 2.613 4.6484 1.0233 7.6187-1.3127 2.4528-3.1785 2.4606-5.3848 0.0227zm339.47-52.751c-1.1519-1.4644-2.3684-3.7545-2.7034-5.0892-1.0342-4.1203 0.327-13.764 3.1312-22.184 4.4821-13.459 21.958-46.779 32.591-62.138 2.0733-2.995 3.9307-1.7271 3.9307 2.6831 0 4.0766-0.5127 5.1544-11.744 24.689-7.4756 13.003-8.316 14.944-6.927 16 2.1175 1.6104 3.6707 6.0286 3.6707 10.442v3.6092l2.5455-2.3914c1.4-1.3152 3.7625-4.3179 5.25-6.6725 3.1644-5.0091 4.2045-5.3635 4.2045-1.4326 0 3.8121-3.6258 8.9843-8.6757 12.376-3.4824 2.3388-4.3163 3.5872-5.3577 8.021-1.5473 6.5873-6.2148 17.077-9.5368 21.432-3.2456 4.2552-7.3443 4.5144-10.379 0.65656zm11.261-15.131c4.1577-10.751 4.1977-11.453 0.7625-13.384l-2.9847-1.6778-1.9344 5.1778c-4.6139 12.349-6.1994 20.3-4.4059 22.094 1.2924 1.2924 5.8593-5.2197 8.5625-12.209zm5.6026-22.207c0.03-1.925-0.35-4.1398-0.8449-4.9218-1.5634-2.4701-3.3327 6.1217-1.9717 9.5743 1.0407 2.6401 1.1822 2.7018 1.942 0.84746 0.4508-1.1 0.8444-3.575 0.8746-5.5zm102.1 8.75c0.021-5.5828 6.7888-15.302 24.894-35.75 10.006-11.3 27.268-29 28.284-29 0.4456 0 0.8101 1.5122 0.8101 3.3604 0 4.3646-2.9922 8.6977-14.876 21.542-15.541 16.798-27.301 30.155-32.441 36.848-2.6399 3.4375-5.2236 6.25-5.7414 6.25-0.5179 0-0.9362-1.4625-0.9296-3.25zm-448.92 0.98526c-4.6166-2.3726-6.6012-6.3347-6.5426-13.062 0.081-9.3349 5.9567-19.544 13.941-24.223 6.0684-3.5563 9.602-3.2437 13.498 1.1938 3.5815 4.079 3.5844 5.6036 0.026 13.606-2.3631 5.3142-4.4754 6.0362-6.252 2.1371-0.9922-2.1776-0.8342-3.5914 0.9485-8.4861 1.359-3.7315 1.7699-6.1013 1.1267-6.4988-1.9053-1.1776-11.457 9.9546-13.712 15.98-3.6725 9.8156-2.1373 17.618 3.4666 17.618 6.9568 0 17.458-9.234 19.847-17.453 3.0676-10.552 11.04-19.266 18.548-20.273 3.7949-0.50901 4.3307-0.25862 8.0374 3.7565 3.3559 3.6351 3.9715 4.9736 3.9715 8.6355 0 2.7833 0.4472 4.345 1.25 4.3654 0.7634 0.0194 0.5688 0.54895-0.5 1.3602-0.9625 0.73064-1.75 1.8592-1.75 2.508 0 1.8282-3.9965 9.2672-6.7692 12.6-3.9366 4.7317-7.2808 6.4862-12.377 6.4934-4.0708 0.006-5.0309-0.43133-7.75-3.5282-1.707-1.9441-3.1036-4.0574-3.1036-4.6962 0-0.63876-1.4625 0.25144-3.25 1.9782-6.4252 6.2069-16.86 8.9652-22.654 5.988zm40.743-7.1299c3.1986-2.9745 8.1607-11.291 8.1607-13.678 0-0.62639-1.125-2.4759-2.5-4.11s-2.5-3.6116-2.5-4.3944c0-4.1352-5.9351 1.9956-9.5201 9.834-2.9865 6.5299-3.7674 14.329-1.5706 15.687 1.9279 1.1916 3.9938 0.32192 7.93-3.3385zm10.161-22.605c0-4.2044-1.4289-5.3747-2.488-2.0378-0.5613 1.7685 0.8693 6.0378 2.0232 6.0378 0.2556 0 0.4648-1.8 0.4648-4zm59.893 29.503c-1.4337-0.77926-3.3518-2.554-4.2625-3.9438l-1.6558-2.527-4.5641 3.4839c-3.7276 2.8453-5.4319 3.4839-9.2989 3.4839-4.6321 0-8.2768-1.9945-9.3103-5.0948-0.2609-0.78272-1.9314-0.0994-4.752 1.9439-3.4079 2.4687-5.3458 3.144-8.9497 3.1191-5.2684-0.0364-7.5614-1.4214-9.1139-5.5048-3.0614-8.0521 5.7066-30.954 18.205-47.552 3.1429-4.1736 6.3889-8.1482 7.2135-8.8326 2.3212-1.9264 5.3545-0.33887 6.6076 3.4581 2.516 7.6237-4.7063 21.473-17.049 32.692-6.1598 5.5993-7.0602 6.9011-8.4137 12.165-1.9885 7.733-1.2826 10.606 2.606 10.606 2.179 0 4.1856-1.2464 7.758-4.8187 3.9974-3.9974 5.2827-6.2559 7.5405-13.25 1.497-4.6372 4.5894-12.031 6.8721-16.431 3.9277-7.5708 13.821-21.718 17.078-24.421 2.3212-1.9264 5.3545-0.33887 6.6076 3.4581 2.516 7.6237-4.7063 21.473-17.049 32.692-6.1598 5.5993-7.0602 6.9011-8.4137 12.165-1.9113 7.4328-1.249 10.606 2.214 10.606 5.3837 0 13.391-8.8465 14.667-16.204 0.8953-5.1633 7.3981-14.435 12.551-17.896 6.0102-4.0365 10.226-3.8924 14.618 0.49963 3.9647 3.9647 4.2961 6.9233 1.4092 12.582-3.8597 7.5658-12.133 11.163-18.202 7.9148-2.7038-1.447-3.7714 0.20114-3.7918 5.8532-0.018 4.9586 2.5852 8.25 6.5245 8.25 6.2542 0 16.676-8.6946 17.98-15 1.648-7.9685 7.7051-16.876 13.974-20.55 6.0684-3.5563 9.602-3.2437 13.498 1.1938 3.5815 4.079 3.5844 5.6036 0.026 13.606-2.3631 5.3142-4.4754 6.0362-6.252 2.1371-0.9922-2.1776-0.8342-3.5914 0.9485-8.4861 1.359-3.7315 1.7699-6.1013 1.1267-6.4988-0.5567-0.34409-3.3904 1.8297-6.297 4.8306-8.1463 8.4105-11.916 20.937-7.9881 26.545 4.4505 6.354 18.006-1.9326 23.252-14.214 1.4245-3.335 4.3188-9.3827 6.4317-13.439 2.1129-4.0566 3.7107-7.4529 3.5506-7.5475s-1.5286-0.70343-3.0411-1.353c-4.0278-1.7298-3.3733-2.9467 2-3.7184 4.5344-0.65119 4.9146-0.96184 8.3773-6.8438 4.6837-7.9562 6.4112-8.0699 6.2567-0.41169-0.079 3.8984 0.274 5.75 1.095 5.75 1.2472 0 4.521 3.1346 4.521 4.3287 0 0.36919-2.1858 0.67126-4.8573 0.67126h-4.8572l-6.2916 11.59c-6.7075 12.356-8.8795 17.507-8.95 21.226-0.066 3.4772 1.7617 6.1843 4.1751 6.1843 3.2696 0 10.94-8.6937 13.393-15.18 2.725-7.2053 11.413-21.82 12.972-21.82 0.6613 0 1.4755 0.7118 1.8093 1.5818 1.341 3.4945 0.3684 7.3003-3.8946 15.241-7.4519 13.88-8.8334 20.178-4.4262 20.178 4.5774 0 11.385-9.1269 13.834-18.548 1.3545-5.2096 6.4161-12.834 10.678-16.085 1.8371-1.4012 5.1699-2.7931 7.4062-3.0931 3.7949-0.50901 4.3307-0.25862 8.0374 3.7565 3.3559 3.6351 3.9715 4.9736 3.9715 8.6355 0 2.7833 0.4472 4.345 1.25 4.3654 0.7634 0.0194 0.5688 0.54895-0.5 1.3602-0.9625 0.73064-1.75 1.8592-1.75 2.508 0 1.8282-3.9965 9.2672-6.7692 12.6-3.9366 4.7317-7.2808 6.4862-12.377 6.4934-4.1024 0.006-5.0234-0.42281-7.8665-3.6609-2.7712-3.1562-3.3487-3.4378-4.1424-2.0194-1.5333 2.7398-9.2622 6.6869-13.094 6.6869-2.7333 0-4.1597-0.697-6.0684-2.9654-2.1872-2.5993-2.6521-2.7763-3.7661-1.4341-5.1757 6.2364-15.418 5.4703-18.01-1.347l-0.9675-2.5447-2.2194 2.0835c-3.3803 3.1733-10.753 6.1629-15.219 6.1709-5.1112 0.009-8.3864-1.671-11.097-5.6928-2.118-3.143-2.1883-3.1655-3.9149-1.2577-5.2288 5.7778-17.719 8.6841-23.595 5.4903zm113.95-6.8977c3.1986-2.9745 8.1607-11.291 8.1607-13.678 0-0.62639-1.125-2.4759-2.5-4.11s-2.5-3.6116-2.5-4.3944c0-4.1352-5.9351 1.9956-9.5201 9.834-2.9865 6.5299-3.7674 14.329-1.5706 15.687 1.9279 1.1916 3.9938 0.32192 7.93-3.3385zm-101.94-15.129c5.739-5.1848 9.2094-13.476 5.6405-13.476-3.9755 0-15.896 14.518-13.283 16.177 2.213 1.4052 3.6658 0.89182 7.6421-2.7005zm112.11-7.4765c0-4.2044-1.4289-5.3747-2.488-2.0378-0.5613 1.7685 0.8693 6.0378 2.0232 6.0378 0.2556 0 0.4648-1.8 0.4648-4zm-151.21-12.836c1.6389-3.1151 3.2766-6.7888 3.6392-8.1638 0.5952-2.2571 0.339-2.1467-2.6366 1.1361-3.3688 3.7166-12.236 17.974-13.335 21.44-1.1159 3.5204 9.3046-8.6578 12.332-14.413zm23 0c1.6389-3.1151 3.2766-6.7888 3.6392-8.1638 0.5952-2.2571 0.339-2.1467-2.6366 1.1361-3.3688 3.7166-12.236 17.974-13.335 21.44-1.1159 3.5204 9.3046-8.6578 12.332-14.413zm133.41 42.636c-2.2947-2.2947-1.3357-9.0733 2.3807-16.828 5.1525-10.752 12.602-22.972 14.003-22.972 1.4363 0 2.4163 2.2613 2.4163 5.5752 0 2.3912 0.039 2.382 4.5769-1.082 5.8735-4.4833 8.9108-5.2667 11.463-2.9567 3.3533 3.0347 2.5114 7.7621-3.1416 17.641-6.6305 11.587-7.6342 18.706-2.6516 18.808 1.5125 0.031 8.4415-6.9914 10.296-10.434 1.9586-3.637 4.4572-4.7641 4.4572-2.0106 0 2.9522-4.0071 9.3638-7.5329 12.053-4.9113 3.746-12.386 4.4877-15.351 1.5232-4.334-4.334-2.4965-13.144 5.4804-26.275 1.9593-3.2254 3.4099-6.322 3.2235-6.8812-0.626-1.8781-9.6503 4.861-14.098 10.528-2.423 3.0872-6.5029 9.8652-9.0664 15.062-2.5635 5.1971-4.7946 9.4493-4.9581 9.4493-0.1634 0-0.8371-0.54-1.4971-1.2zm148.22-0.68547c-9.6842-5.9054-6.4878-19.957 11.228-49.361 8.0491-13.359 10.634-15.072 10.616-7.0335-0.01 4.6041-1.1974 7.3014-10.246 23.28-7.3454 12.972-11.657 24.413-10.534 27.953 1.7983 5.6659 8.9288 4.04 15.052-3.4321 1.8976-2.3157 8.4561-13.393 14.574-24.616 12.018-22.044 15.83-28.259 17.389-28.348 0.55-0.0313 1.1379 2.0988 1.3064 4.7336 0.2731 4.2678-0.4449 6.2318-6.5797 18-13.773 26.421-20.839 36.396-27.859 39.329-4.6533 1.9443-11.299 1.7197-14.947-0.50519zm103 0c-9.6842-5.9054-6.4878-19.957 11.228-49.361 8.0491-13.359 10.634-15.072 10.616-7.0335-0.01 4.6041-1.1974 7.3014-10.246 23.28-7.3454 12.972-11.657 24.413-10.534 27.953 1.7983 5.6659 8.9288 4.04 15.052-3.4321 1.8976-2.3157 8.4561-13.393 14.574-24.616 12.018-22.044 15.83-28.259 17.389-28.348 0.55-0.0313 1.1379 2.0988 1.3064 4.7336 0.2731 4.2678-0.4449 6.2318-6.5797 18-13.773 26.421-20.839 36.396-27.859 39.329-4.6533 1.9443-11.299 1.7197-14.947-0.50519zm-562.78 0.19162c-1.191-1.191-0.6479-6.2625 1.1881-11.095 1.5145-3.9858 1.6002-5.0225 0.5-6.0502-2.0984-1.9602-1.5598-3.1606 1.4224-3.1699 2.3315-0.007 3.4282-1.1078 7.2065-7.2313 6.203-10.053 17.91-25.322 23.88-31.147 5.6989-5.5595 7.4466-5.5728 9.744-0.0743 1.3993 3.3488 1.309 4.2008-1.4743 13.91-1.6307 5.6884-3.4957 13.041-4.1444 16.338-1.1032 5.6075-1.0431 6.1318 0.9292 8.1041 2.8201 2.8201 2.6568 3.9128-0.6413 4.2923-2.6717 0.30741-2.7742 0.55127-3.6001 8.5664-0.4675 4.5375-1.2295 8.25-1.6933 8.25-2.2108 0-3.9566-4.7629-3.9566-10.794v-6.3494l-5.75 0.60753c-15.421 1.6294-13.905 0.90077-17.745 8.5262-3.5048 6.9597-4.714 8.4679-5.8656 7.3163zm30.927-26.196c0.3327-1.9855 1.6541-8.1098 2.9364-13.609 1.2822-5.4997 2.1761-10.155 1.9863-10.344-0.6576-0.65767-21.49 27.21-21.49 28.747 0 0.3715 3.5914 0.25718 7.9809-0.25406l7.981-0.92951 0.6049-3.6101zm347.54 23.355c-3.0688-3.4952-3.6147-5.6471-3.1619-12.465 0.5166-7.781 7.9351-19.29 14.416-22.366 5.6778-2.6943 8.4834-2.1391 12.796 2.5319 3.2292 3.4978 3.8464 4.8618 3.8464 8.5 0 2.7833 0.4472 4.345 1.25 4.3654 0.7634 0.0194 0.5688 0.54895-0.5 1.3602-0.9625 0.73064-1.75 1.8592-1.75 2.508 0 1.8282-3.9965 9.2672-6.7692 12.6-3.9366 4.7317-7.2808 6.4862-12.377 6.4934-4.0708 0.006-5.0309-0.43133-7.75-3.5282zm11.736-3.8598c3.1986-2.9745 8.1607-11.291 8.1607-13.678 0-0.62639-1.125-2.4759-2.5-4.11s-2.5-3.6116-2.5-4.3944c0-4.1352-5.9351 1.9956-9.5201 9.834-2.9865 6.5299-3.7674 14.329-1.5706 15.687 1.9279 1.1916 3.9938 0.32192 7.93-3.3385zm10.161-22.605c0-4.2044-1.4289-5.3747-2.488-2.0378-0.5613 1.7685 0.8693 6.0378 2.0232 6.0378 0.2556 0 0.4648-1.8 0.4648-4zm98.37 28.521c-0.3389-0.88306-0.3972-3.8838-0.1297-6.6683 0.8272-8.609 25.058-54.353 28.791-54.353 1.1014 0 1.4577 1.25 1.4252 5-0.038 4.3543-1.0887 6.8726-8.1371 19.5-4.4515 7.975-10.606 19.527-13.676 25.672-5.8266 11.661-7.2474 13.524-8.2739 10.849zm103.63-2.4112c0-4.4138 4.2464-10.778 14.855-22.263 3.3799-3.6593 6.1453-7.5521 6.1453-8.6506 0-1.6849-3.3299-22.395-4.2151-26.216-0.5756-2.4842 2.2864-2.0622 5.1007 0.75209 2.7756 2.7756 3.1336 3.8636 5.6995 17.32 0.4558 2.3899 1.2154 1.8365 12.01-8.75 6.3379-6.2157 11.947-11.301 12.464-11.301 1.2978 0 1.1835 5.653-0.1682 8.3157-0.6099 1.2013-5.9766 7.1343-11.926 13.184l-10.817 11 1.4975 8.497c1.3179 7.4778 3.3765 14.656 5.8083 20.253 0.6041 1.3902 0.2758 1.7435-1.5966 1.7182-4.9372-0.0666-8.1479-5.0512-10.491-16.287-0.8183-3.925-1.6049-7.2532-1.7478-7.3962-0.3269-0.32692-13.071 13.783-17.58 19.465-1.8552 2.3375-3.7478 4.25-4.2058 4.25-0.4579 0-0.8326-1.7505-0.8326-3.89zm-324.42-37.022c-2.0931-2.3128-1.7564-6.9633 0.6115-8.4455 1.2919-0.80872 2.1777-0.61878 3.75 0.80413 2.2638 2.0487 2.613 4.6484 1.0233 7.6187-1.3127 2.4528-3.1785 2.4606-5.3848 0.0227zm303.8-57.527c-3.5751-1.5542-7.0249-5.8037-10.746-13.237-5.2259-10.439-5.4169-18.883-0.7103-31.411 7.2176-19.212 23.297-34.411 50.057-47.317l11.388-5.4923 3.7969-9.1217 3.7968-9.1217-2.7306 2.1259c-7.5529 5.8804-14.895 10.018-19.676 11.088-10.023 2.2431-18.534-0.7641-23.418-8.274l-2.3637-3.6346-4.6363 3.2993c-8.7606 6.2342-15.088 8.8104-22.897 9.3224-6.6326 0.43487-7.8147 0.20311-13.672-2.6803-6.8767-3.3854-11.514-8.8567-13.705-16.172l-1.0963-3.659-7.1333 7.2085c-9.4665 9.5664-18.954 14.39-29.936 15.221-5.8844 0.44504-8.6934 0.1849-12.116-1.122-5.5886-2.1343-11.118-8.1596-12.644-13.778-1.6966-6.2454-0.6059-18.004 2.534-27.317 3.651-10.829 16.636-37.099 26.29-53.186 9.7978-16.327 12.795-20.303 15.304-20.303 4.8776 0 8.2002 12.766 5.9453 22.842-0.6881 3.0746-3.9554 10.78-7.2608 17.124-19.349 37.134-22.618 44.055-24.226 51.279-3.6153 16.25 3.6607 21.029 17.78 11.677 9.2622-6.135 18.49-18.79 27.689-37.969 3.021-6.2993 11.656-23.716 19.188-38.703 13.26-26.386 13.613-27.25 11.123-27.25-7.364 0-17.694-6.2598-17.108-10.367 0.2888-2.0247 1.0005-2.1628 14.069-2.7307 7.5706-0.32897 13.922-0.77897 14.114-1 0.1921-0.22104 2.5204-4.2269 5.1742-8.9019 6.5681-11.571 16.725-27.201 18.756-28.862 6.6452-5.4351 9.7487 14.191 4.4266 27.993l-2.5571 6.6314 4.8684 0.46779c5.3463 0.51371 10.552 3.7842 12.846 8.0702 2.6408 4.9345 1.2597 5.6892-10.612 5.7989-5.9298 0.0548-11.906 0.40965-13.281 0.78849-2.7902 0.76878-11.534 15.209-29.13 48.112-15.166 28.357-19.15 40.515-16.872 51.487 1.7653 8.5036 6.9673 12.493 14.458 11.088 7.0177-1.3165 22.875-16.125 24.077-22.485 3.3586-17.768 24.755-61.023 40.51-81.897 4.7379-6.2771 7.506-6.3475 10.855-0.27624 2.9588 5.3638 3.2405 13.155 0.7467 20.656-0.9275 2.7895-5.5339 11.565-10.236 19.5-19.784 33.384-26.981 53.381-21.851 60.706 3.3165 4.735 12.314 1.3693 20.778-7.7718 10.426-11.261 18.933-24.604 36.666-57.506 18.676-34.653 22.506-40.5 26.522-40.5 4.6572 0 7.5956 13.547 5.0353 23.214-0.8324 3.1425-6.985 16.643-13.672 30-14.673 29.308-28.086 57.919-27.449 58.555 0.5886 0.58864 9.399-4.7571 16.564-10.05 12.165-8.987 19.235-15.905 32.743-32.039 1.2338-1.4737 2.9754-2.6795 3.8702-2.6795 1.3662 0 1.5586 0.94199 1.2015 5.8798-0.5612 7.7581-4.9553 15.201-14.815 25.095-7.9941 8.0214-19.237 15.065-36.458 22.841l-8.9579 4.0447-9.0836 20.347c-15.402 34.5-25.691 52.056-37.446 63.896-9.6483 9.7183-18.12 13.309-24.676 10.459zm7.9245-21.523c6.4697-6.9881 13.984-18.205 22.468-33.539 6.3154-11.414 13.688-27.374 12.975-28.087-0.7352-0.73525-9.9274 5.8606-16.076 11.535-16.328 15.07-28.67 36.531-28.67 49.853 0 8.2373 1.853 8.2846 9.3036 0.23701zm66.696-27.539c0-1.3186 7.5891-1.4865 62.75-1.3881 34.512 0.0616 67.025 0.40117 72.25 0.75469 9.0884 0.61492 8.6767 0.67494-9.5 1.3852-10.45 0.40836-42.962 0.74375-72.25 0.7453-46.668 0.002-53.25-0.18258-53.25-1.4972zm-736.5-2.481-36-0.51901 28.913-0.75c15.902-0.4125 164.74-0.75 330.75-0.75 267.63 0 301.84 0.16998 301.84 1.5 0 1.3305-33.314 1.4739-294.75 1.269-162.11-0.12705-310.95-0.46455-330.75-0.75zm22.658-52.566c-6.7453-6.0646-10.146-13.16-10.832-22.605-1.3128-18.058 12.176-93.576 24.264-135.85 6.3559-22.226 8.733-25.568 13.462-18.928 4.6831 6.5768 6.0837 17.198 3.8896 29.494-0.5823 3.2635-4.3899 21.234-8.4614 39.934-4.0714 18.7-9.2304 43.9-11.464 56-2.234 12.1-4.2479 22.9-4.4753 24-0.4134 2-0.4134 2 1.0416 0 0.8003-1.1 7.873-11.675 15.717-23.5 34.125-51.442 94.711-129 100.77-129 2.9445 0 4.2328 3.6642 3.6619 10.415-1.1068 13.089-5.6089 20.802-31.859 54.585-32.96 42.417-59.787 78.856-75.831 103-9.0648 13.641-11.754 17-13.608 17-0.6696 0-3.4935-2.0463-6.2753-4.5474zm270.56 2.5224c-8.6691-2.1939-15.703-7.352-20.828-15.274-2.0634-3.1892-4.0434-7.1267-4.3999-8.75-0.3565-1.6232-0.7516-2.9514-0.878-2.9514s-2.5017 2.1898-5.2785 4.8663c-10.004 9.643-23.853 17.542-36.333 20.723-9.4906 2.4193-22.159 1.5462-29.47-2.0312-6.9542-3.4024-13.342-9.7496-16.413-16.308l-2.3838-5.091-3.7477 4.7412c-9.1322 11.553-21.783 18.861-34.287 19.807-5.8844 0.44504-8.6934 0.1849-12.116-1.122-5.5886-2.1343-11.118-8.1596-12.644-13.778-1.6966-6.2454-0.6059-18.004 2.534-27.317 3.651-10.829 16.636-37.099 26.29-53.186 9.7978-16.327 12.795-20.303 15.304-20.303 4.8776 0 8.2002 12.766 5.9453 22.842-0.6881 3.0746-3.9554 10.78-7.2608 17.124-19.349 37.134-22.618 44.055-24.226 51.279-2.0158 9.0606-1.2047 13.627 2.7618 15.549 7.6756 3.7196 21.201-5.9623 32.672-23.387 5.5102-8.3706 6.266-10.289 8.3208-21.12 1.8525-9.7642 8.2848-23.937 15.794-34.799 7.3992-10.703 20.234-22.543 29.288-27.018 13.285-6.5657 23.356-4.8168 34.076 5.9174 8.3133 8.3245 9.6634 16.814 4.6293 29.111-10.578 25.84-11.885 27.63-17.489 23.958-8.0129-5.2503-9.0917-15.671-3.1085-30.027 6.3166-15.156 7.1627-18.23 5.4783-19.906-2.4091-2.3961-9.2111 1.4911-17.908 10.234-18.672 18.77-32.094 47.733-30.784 66.423 0.5385 7.6806 3.8052 15.168 7.9207 18.154 6.3523 4.6098 19.936 2.5103 32.71-5.0556 12.324-7.3001 29.115-25.276 29.115-31.171 0-8.069 7.1446-25.543 15.715-38.434 12.79-19.239 31.666-32.677 45.9-32.677 7.8895 0 18.698 6.9283 25.537 16.369 2.5017 3.4535 2.8474 4.8041 2.8474 11.124 0 12.499-5.6084 24.415-16.475 35.007-7.8237 7.6252-14.383 10.765-23.605 11.299-8.6493 0.5007-13.163-0.60759-20.007-4.9129-2.5232-1.5871-4.8372-2.8856-5.1423-2.8856-1.2912 0-4.1629 15.071-4.1299 21.673 0.071 14.184 7.7008 23.327 19.466 23.327 6.7452 0 16.403-3.3084 23.893-8.1852 8.2793-5.3903 21.079-18.263 27.426-27.582 2.7096-3.9782 5.467-7.2331 6.1276-7.2331 2.5035 0 3.7233 2.9592 3.0986 7.5171-2.0972 15.301-23.487 35.15-45.325 42.059-5.8718 1.8578-23.408 2.7151-28.61 1.3986zm18.102-58.979c14.958-6.788 36.444-43.556 27.173-46.498-5.4493-1.7295-20.925 9.8562-31.582 23.644-4.5197 5.8474-12.372 19.482-12.397 21.525-0.018 1.5172 4.549 3.1602 8.9859 3.2324 1.925 0.0313 5.4436-0.82505 7.8191-1.9031zm160.68 56.878c-19.117-2.3851-34.077-17.16-39.114-38.63-2.4467-10.43-1.4606-33.696 1.968-46.434 6.4698-24.037 19.003-45.523 38.514-66.026 20.461-21.501 43.474-33.726 63.566-33.769 9.0249-0.0192 13.776 2.2849 21.162 10.263 8.147 8.7997 11.414 16.197 11.359 25.723-0.024 4.125-0.6593 9.075-1.4125 11-3.7937 9.696-14.175 34.657-14.868 35.75-1.2169 1.9186-3.2198 1.5038-6.6419-1.3758-9.0324-7.6002-9.3327-18.152-1.1171-39.255 2.8652-7.3592 5.4644-15.534 5.7761-18.166 0.4993-4.2155 0.259-5.0935-2.0171-7.3695-3.1032-3.1033-4.5679-3.1729-12.82-0.6098-22.465 6.9781-52.001 34.538-68.617 64.026-7.2492 12.865-13.417 32.642-15.232 48.84-3.375 30.122 9.2923 50.447 28.88 46.338 16.515-3.4641 32.513-18.043 47.708-43.476 6.4881-10.86 8.7275-12.412 11.11-7.7024 0.6957 1.375 1.2715 5.242 1.2796 8.5934 0.045 18.662-16.896 40.009-38.82 48.917-4.6974 1.9087-20.754 4.9361-23.14 4.3627-0.2894-0.0696-3.6762-0.5195-7.5262-0.99985zm-301.9-114.44c-3.4158-1.8513-7.6554-10.391-7.638-15.386 0.016-4.4572 3.1937-11.515 5.8175-12.919 7.4881-4.0075 17.151 4.898 17.151 15.807 0 11.145-7.119 16.949-15.33 12.498zm439 0c-3.4158-1.8513-7.6554-10.391-7.638-15.386 0.016-4.4572 3.1937-11.515 5.8175-12.919 7.4881-4.0075 17.151 4.898 17.151 15.807 0 11.145-7.119 16.949-15.33 12.498zm-285-106.79c-7.6351-2.8431-11.655-8.5695-11.655-16.602 0-8.9065 4.8836-14.813 14.07-17.017 6.4158-1.5391 14.634-0.003 18.702 3.4967l2.697 2.3199-2.4095 1.9511c-2.4015 1.9446-2.4209 1.9433-5.8739-0.39995-6.9113-4.6902-16.753-2.0054-19.871 5.4209-4.6532 11.082 9.5245 20.898 19.957 13.819l3.5504-2.4094 2.1047 2.2403c2.003 2.1322 2.0194 2.3147 0.3391 3.7809-4.861 4.2415-15.046 5.8439-21.61 3.3997zm41-0.001c-7.4966-2.7893-11.886-8.9199-11.886-16.601 0-11.729 10.652-19.713 22.938-17.192 6.5345 1.3408 10.733 4.403 13.296 9.698 5.5673 11.501-1.9537 23.952-15.144 25.071-3.2821 0.27853-6.8485-0.0996-9.2034-0.9758zm13.378-6.118c3.476-1.7976 5.9673-6.1743 5.9673-10.483 0-11.718-15.666-16.454-22.439-6.7832-1.7868 2.551-2.0721 9.9592-0.4969 12.902 2.7523 5.1427 11.241 7.3257 16.969 4.3638zm153.62 6.118c-7.4966-2.7893-11.886-8.9199-11.886-16.601 0-11.729 10.652-19.713 22.938-17.192 6.5345 1.3408 10.733 4.403 13.296 9.698 5.5673 11.501-1.9537 23.952-15.144 25.071-3.2821 0.27853-6.8485-0.0996-9.2034-0.9758zm13.378-6.118c3.476-1.7976 5.9673-6.1743 5.9673-10.483 0-11.718-15.666-16.454-22.439-6.7832-1.7868 2.551-2.0721 9.9592-0.4969 12.902 2.7523 5.1427 11.241 7.3257 16.969 4.3638zm-322.94 2.7668c-3.0419-11.58-7.092-28.286-7.092-29.255 0-0.66079 1.3158-0.99307 3.2016-0.8085 3.183 0.31153 3.2172 0.37456 5.8647 10.813 2.9996 11.827 2.7073 11.944 7.0121-2.7862 2.3746-8.1254 2.4793-8.2807 5.3926-8 2.828 0.27244 3.1169 0.75266 6 9.974 1.666 5.3283 3.2833 9.9326 3.5942 10.232 0.3109 0.29924 1.6122-4.1728 2.8918-9.9378l2.3266-10.482h3.3582c1.847 0 3.3582 0.47632 3.3582 1.0585s-1.374 6.5447-3.0534 13.25c-5.4157 21.623-4.5989 19.692-8.3265 19.692h-3.3027l-3.2657-10.636c-2.0627-6.7176-3.5605-10.159-4.0658-9.3413-0.4401 0.712-2.0415 5.4981-3.5587 10.636-2.7584 9.3408-2.7587 9.3413-6.0543 9.3413-2.9667 0-3.3942-0.37448-4.2809-3.75zm40.908-13.25v-17h10.5 10.5v3 3h-7-7v3.5 3.5h7 7v3 3h-7-7v4.5 4.5h7 7v3 3h-10.5-10.5v-17zm27 0v-17h3.5 3.5v14 14h5.5c5.4444 0 5.5 0.0303 5.5 3v3h-9-9v-17zm105.05 15.25c0.027-0.9625 1.2856-8.5 2.7978-16.75l2.7493-15 3.5883-0.30357 3.5883-0.30357 3.1209 8.8036c5.8942 16.627 5.121 16.397 10.041 2.984l4.2843-11.68h3.391c1.865 0 3.3909 0.15085 3.3909 0.33523s1.3465 7.2719 2.9923 15.75c1.6457 8.4781 2.9957 16.006 3 16.728 0.01 0.87873-1.0589 1.2097-3.2153 1l-3.223-0.31336-2.0748-10.5-2.0748-10.5-3.9147 10.75c-3.8567 10.591-3.9616 10.75-7.0934 10.75-3.1357 0-3.2302-0.14452-6.9841-10.681-4.2368-11.892-4.1073-11.941-6.4358 2.4308l-1.3368 8.25h-3.3198c-2.5135 0-3.308-0.42504-3.2714-1.75zm48.952-15.25v-17h10.5 10.5v3 3h-7-7v3.5 3.5h7 7v3 3h-7-7v4.5 4.5h7 7v3 3h-10.5-10.5v-17zm59 3v-14h-3c-2.6667 0-3-0.33333-3-3v-3h10 10v3c0 2.7619-0.2778 3-3.5 3h-3.5v14 14h-3.5-3.5v-14z" filter="url(#filter4190)"/>
 </g>
 <g id="layer1">
  <path id="path4147" fill="#fff" d="m1536.2 958.31c-15.044-7.6621-10.962-33.912 8.0493-51.753 10.083-9.4624 21.982-12.908 28.061-8.1259 3.1771 2.4991 5.6292 6.9454 5.5769 10.112-0.059 3.5395-5.4704 15.3-7.0406 15.3-0.7669 0-2.0259-1.3174-2.7976-2.9275-1.2522-2.6126-1.173-3.6422 0.7365-9.571 3.1211-9.6906 2.9882-10.379-1.8782-9.7259-8.6353 1.1582-22.182 13.291-27.972 25.053-8.2572 16.773-5.4031 32.444 5.2334 28.736 4.6215-1.611 14.757-11.34 14.757-14.165 0-0.4537-2.8842-0.5555-6.4093-0.2264-6.0125 0.5615-6.5763 0.4316-9.1061-2.0982-1.4832-1.4832-2.5278-2.8656-2.3214-3.072 0.6762-0.6762 19.724-3.5035 23.604-3.5035 2.0836 0 4.7884 0.70052 6.0108 1.5567 2.6892 1.8835 3.0119 5.4859 0.4725 5.273-4.5627-0.3823-6.0627 0.1706-5.5703 2.0535 0.2709 1.0357-0.2726 3.3982-1.2078 5.25-5.61 11.109-18.774 16.634-28.198 11.834zm159.18 0.6816c-11.28-5.1182-13.674-20.809-5.6418-36.969 7.0349-14.153 18.956-24.868 29.222-26.266 3.9388-0.53616 5.0632-0.2109 9.4695 2.739 7.1299 4.7734 8.748 8.4062 8.1721 18.347-0.2713 4.6834-1.3494 10.341-2.6006 13.646-4.259 11.251-14.315 23.83-21.98 27.493-4.7367 2.2643-12.798 2.7534-16.642 1.0097zm12.277-6.2058c7.5073-4.9189 16.189-17.25 19.986-28.385 2.5651-7.5241 3.0603-18.618 0.9593-21.492-6.0931-8.3328-28.923 11.555-34.687 30.217-5.4945 17.789 1.445 27.717 13.742 19.66zm25.473 6.357c-2.2947-2.2947-1.3357-9.0733 2.3807-16.828 5.1525-10.752 12.602-22.972 14.003-22.972 1.4363 0 2.4163 2.2613 2.4163 5.5752 0 2.3912 0.039 2.382 4.5769-1.082 5.8735-4.4833 8.9108-5.2667 11.463-2.9567 3.3533 3.0347 2.5114 7.7621-3.1416 17.641-5.391 9.4206-7.2473 16.355-4.7939 17.909 2.0953 1.3268 2.526 1.1772 6.3986-2.2231 4.4931-3.945 7.9112-9.7388 10.592-17.954 1.1502-3.5246 3.9565-10.008 6.2362-14.408 3.9204-7.5667 13.81-21.713 17.073-24.421 2.3212-1.9264 5.3545-0.33887 6.6076 3.4581 2.516 7.6237-4.7063 21.473-17.049 32.692-6.1598 5.5993-7.0602 6.9012-8.4137 12.165-1.945 7.5637-1.2628 10.606 2.3784 10.606 4.2743 0 10.554-6.1171 14.176-13.808 4.7094-10.001 12.114-22.192 13.48-22.192 0.6613 0 1.4755 0.7118 1.8093 1.5818 1.341 3.4945 0.3684 7.3003-3.8946 15.241-7.4262 13.832-8.8314 20.178-4.4681 20.178 3.4483 0 7.9307-5.1221 11.906-13.605 5.2932-11.295 13.159-24.395 14.648-24.395 1.4363 0 2.4163 2.2613 2.4163 5.5752 0 2.3912 0.039 2.382 4.5769-1.082 5.8735-4.4833 8.9108-5.2667 11.463-2.9567 3.3589 3.0398 2.512 7.761-3.1748 17.699-5.7797 10.1-7.3966 16.963-4.2781 18.16 3.864 1.4828 12.278-7.9797 14.795-16.639 3.0876-10.621 13.033-20.756 20.368-20.756 4.3587 0 10.25 5.4254 10.25 9.4398 0 3.8746-3.4984 10.076-7.3352 13.002-3.6268 2.7664-9.2237 3.3996-12.858 1.4547-2.7038-1.447-3.7714 0.2012-3.7918 5.8533-0.041 11.484 11.014 10.77 21.871-1.4121 5.0505-5.6665 5.1135-5.7005 5.1135-2.7654 0 4.1106-4.8551 9.6781-11.195 12.837-8.8082 4.3894-17.664 3.0241-21.399-3.2991l-1.7129-2.8997-2.3351 2.7751c-4.881 5.8008-14.474 7.8982-18.358 4.014-4.2093-4.2093-2.2913-13.174 5.5965-26.159 1.9593-3.2254 3.4099-6.322 3.2235-6.8812-0.626-1.8781-9.6503 4.861-14.098 10.528-2.423 3.0872-6.5263 9.9127-9.1184 15.168-4.5129 9.1492-4.7916 9.4835-6.5671 7.8766-1.7015-1.5398-2.1048-1.5485-4.8955-0.1053-4.8869 2.5271-9.5643 2.0463-12.355-1.2699l-2.3919-2.8426-3.4188 2.3426c-6.2726 4.298-16.975 2.2175-16.975-3.3 0-1.123-1.0192-0.6697-3.6111 1.606-6.2349 5.4743-13.655 6.7701-17.389 3.0366-4.2093-4.2093-2.2913-13.174 5.5965-26.159 1.9593-3.2254 3.4099-6.322 3.2235-6.8812-0.626-1.8781-9.6503 4.861-14.098 10.528-2.423 3.0872-6.5029 9.8652-9.0664 15.062-2.5635 5.1971-4.7946 9.4493-4.9581 9.4493-0.1634 0-0.8371-0.54-1.4971-1.2zm141.69-22.324c5.739-5.1848 9.2094-13.477 5.6405-13.477-3.9755 0-15.896 14.518-13.283 16.177 2.213 1.4052 3.6658 0.8918 7.6421-2.7005zm-75.101-20.313c1.6389-3.1151 3.2766-6.7888 3.6392-8.1638 0.5952-2.2571 0.339-2.1467-2.6366 1.1361-3.3688 3.7166-12.236 17.974-13.335 21.44-1.1159 3.5204 9.3046-8.6578 12.332-14.413zm94.237 41.893c-1.4384-2.6876 0.6234-6.9322 3.7482-7.7164 4.2599-1.0692 5.7638 4.1167 2.2212 7.6593-2.5266 2.5266-4.637 2.5468-5.9694 0.057zm-277.39 0.249c-1.191-1.191-0.6479-6.2625 1.1881-11.095 1.5145-3.9858 1.6002-5.0225 0.5-6.0502-2.0984-1.9602-1.5598-3.1606 1.4224-3.1699 2.3315-0.01 3.4282-1.1078 7.2065-7.2313 6.203-10.053 17.91-25.322 23.88-31.147 5.6989-5.5595 7.4466-5.5728 9.744-0.0743 1.3993 3.3488 1.309 4.2008-1.4743 13.91-1.6307 5.6884-3.4957 13.041-4.1444 16.338-1.1032 5.6075-1.0431 6.1318 0.9292 8.1041 2.8201 2.8201 2.6568 3.9128-0.6413 4.2923-2.6717 0.3074-2.7742 0.5513-3.6001 8.5664-0.4675 4.5375-1.2295 8.25-1.6933 8.25-2.2108 0-3.9566-4.7628-3.9566-10.794v-6.3495l-5.75 0.6075c-15.421 1.6294-13.905 0.9008-17.745 8.5263-3.5048 6.9596-4.714 8.4679-5.8656 7.3163zm30.927-26.196c0.3327-1.9855 1.6541-8.1098 2.9364-13.609 1.2822-5.4997 2.1761-10.155 1.9863-10.344-0.6576-0.65767-21.49 27.21-21.49 28.748 0 0.3715 3.5914 0.2572 7.9809-0.2541l7.981-0.9295 0.6049-3.6101zm-67.223 24.343c-1.9194-5.002 5.1683-22.879 16.888-42.594l4.5418-7.6407-6.33-0.40306c-4.3361-0.2761-6.9777-0.9893-8.3865-2.2643-3.3896-3.0675-2.6042-4.5512 2.409-4.5512 2.4561 0 9.5436-0.71193 15.75-1.5821 12.255-1.7182 17.005-1.4332 19.908 1.1943 3.3715 3.0511 2.347 4.3868-3.374 4.3988-2.8875 0.006-6.9138 0.28609-8.9474 0.6223-3.1491 0.52065-3.7919 1.0752-4.3344 3.739-0.3504 1.7202-4.5908 10.328-9.4232 19.128s-10.39 19.488-12.35 23.75c-3.5066 7.6244-5.1787 9.2577-6.3507 6.2035zm234.24-38.365c-2.0931-2.3128-1.7564-6.9633 0.6115-8.4455 1.2919-0.80872 2.1777-0.61878 3.75 0.80413 2.2638 2.0487 2.613 4.6484 1.0233 7.6187-1.3127 2.4528-3.1785 2.4606-5.3848 0.0227zm-318.91-58.755c-1.3556-1.3555-0.606-9.4132 1.3333-14.333 1.1-2.7907 2-5.1731 2-5.2942s-2.0151-0.0599-4.478 0.13597c-3.9266 0.31229-4.8654-0.0313-7.6247-2.7906-4.6795-4.6796-3.8323-9.4204 3.9546-22.128 6.461-10.544 6.2744-12.174-0.757-6.6098-6.3501 5.025-12.416 12.976-17.766 23.288-4.2862 8.2613-4.9976 9.14-6.329 7.8172-2.1726-2.1585-1.7068-9.1308 0.9632-14.418 1.2499-2.475 4.2445-7.6878 6.6546-11.584 2.4102-3.8962 4.3822-7.6202 4.3822-8.2757 0-2.2841-5.5186 1.5901-11.743 8.2437-5.1928 5.5511-11.389 15.767-15.571 25.672-0.4839 1.1461-0.9436 0.99284-2.228-0.74271-1.617-2.1849-1.6208-2.1851-4.7883-0.25374-4.4146 2.6918-9.7661 2.5316-12.496-0.37402-4.2962-4.5731-1.9686-13.855 7.442-29.675 4.719-7.9332 6.6021-9.4899 7.7767-6.429 1.341 3.4945 0.3684 7.3003-3.8946 15.241-7.4819 13.936-8.8359 20.178-4.3767 20.178 3.6843 0 8.7274-6.42 15.318-19.5 7.5573-14.999 10.804-19.595 12.599-17.837 0.6649 0.65113 1.0241 2.8812 0.8158 5.065l-0.3721 3.9017 5.187-4.2249c2.8529-2.3237 6.1023-4.5154 7.221-4.8704 3.1095-0.98691 5.9507 1.1014 6.6628 4.8973l0.6393 3.4078 4.4807-3.4202c8.3492-6.3731 12.328-5.9538 12.325 1.299 0 3.9775-0.8628 6.2105-5.1225 13.281-5.5924 9.2834-7.0641 14.769-4.5273 16.874 3.7415 3.1051 8.2441-1.5982 16.553-17.291 10.102-19.079 14.036-23.756 14.92-17.739l0.3216 2.1879 2.5632-2.0162c3.8802-3.0521 9.6-2.7114 12.318 0.7338 1.8089 2.2931 2.1059 3.7469 1.7878 8.75-0.4526 7.1176-5.2804 18.265-10.119 23.365-3.0892 3.256-3.1116 3.341-0.6926 2.6233 6.926-2.0548 9.6391-4.6043 18.372-17.264 4.9998-7.2479 5.6307-8.6921 5.0798-11.629-1.0235-5.4557 5.1287-14.461 8.8925-13.017 1.8999 0.72904 2.0629 2.5138 0.6726 7.3616-0.5406 1.8849-0.7798 3.6303-0.5315 3.8786 0.2483 0.24827 2.9472-0.81136 5.9976-2.3547 5.4162-2.7403 5.5804-2.7611 6.9997-0.88517 2.6085 3.4475 1.7578 6.7502-3.475 13.491-5.9694 7.6894-8.7716 14.959-7.1435 18.532 1.282 2.8136 2.8176 3.0097 6.0174 0.76848 3.2384-2.2682 8.1137-10.244 8.1402-13.316 0.054-6.3352 8.2023-18.509 14.336-21.42 5.6778-2.6943 8.4834-2.1391 12.796 2.5319 3.2292 3.4978 3.8464 4.8618 3.8464 8.5 0 2.7833 0.4472 4.345 1.25 4.3654 0.7634 0.0194 0.5688 0.54895-0.5 1.3602-0.9625 0.73064-1.75 1.8592-1.75 2.508 0 1.8282-3.9965 9.2672-6.7692 12.6-3.9366 4.7317-7.2808 6.4862-12.377 6.4934-4.0613 0.006-5.0331-0.43377-7.7166-3.4901-2.86-3.2574-3.14-3.3662-4.0909-1.5894-1.4945 2.7925-7.3279 6.0861-10.779 6.0861-1.6484 0-4.1482-0.90548-5.5552-2.0122-5.3415-4.2017-4.3965-11.827 2.7946-22.551 2.4463-3.6481 3.8152-6.3901 3.0419-6.0934-0.7734 0.29675-2.9078 0.82127-4.7433 1.1656-2.9953 0.56193-3.9666 1.7205-9.4807 11.309-3.3789 5.8754-6.8079 12.691-7.62 15.145-1.7301 5.2282-3.1054 6.0492-4.7719 2.8487-0.6617-1.2709-1.2981-2.4292-1.4141-2.5739-0.1161-0.14472-1.8407 0.41778-3.8324 1.25-5.6241 2.3499-14.689 1.9825-18.788-0.76143-1.8689-1.251-3.8421-3.276-4.385-4.5s-1.2522-2.2254-1.5762-2.2254-3.7048 6.5081-7.5129 14.462c-3.8081 7.9544-7.1863 14.479-7.5071 14.5-0.3209 0.0207-0.8834-0.26246-1.25-0.62913zm99.173-27.728c3.1986-2.9745 8.1607-11.291 8.1607-13.678 0-0.62639-1.125-2.4759-2.5-4.11s-2.5-3.6116-2.5-4.3944c0-4.1352-5.9351 1.9956-9.5201 9.834-2.9865 6.5299-3.7674 14.329-1.5706 15.687 1.9279 1.1916 3.9938 0.32192 7.93-3.3385zm-70.038-1.0059c4.7701-5.1749 7.3924-10.019 9.6758-17.874 3.0675-10.552-0.186-12.653-7.7043-4.9758-8.5357 8.716-13.473 22.15-9.5731 26.05 1.9849 1.9849 3.3526 1.409 7.6016-3.2006zm80.198-21.599c0-4.2044-1.4289-5.3747-2.488-2.0378-0.5613 1.7685 0.8693 6.0378 2.0232 6.0378 0.2556 0 0.4648-1.8 0.4648-4zm361.78 30.226-1.1225-2.974-4.0783 1.8522c-7.5383 3.4238-16.374 1.9476-19.769-3.3027-5.5983-8.6579 0.1118-25.472 11.173-32.901 6.0102-4.0365 10.226-3.8924 14.618 0.49963 3.9647 3.9647 4.2961 6.9233 1.4092 12.582-3.8597 7.5658-12.133 11.163-18.202 7.9148-2.7038-1.447-3.7714 0.20114-3.7918 5.8532-0.027 7.6316 5.211 10.232 12.774 6.3416 4.7466-2.4415 7.6699-5.6221 14.636-15.924 4.8769-7.2125 5.5511-8.7755 5.0158-11.629-1.0133-5.4015 5.1648-14.395 8.9032-12.96 1.8999 0.72904 2.0629 2.5138 0.6726 7.3616-0.5406 1.8849-0.7798 3.6303-0.5315 3.8786 0.2483 0.24827 2.9472-0.81136 5.9976-2.3547 5.4162-2.7403 5.5804-2.7611 6.9997-0.88517 2.6085 3.4475 1.7578 6.7502-3.475 13.491-5.9694 7.6894-8.7716 14.959-7.1435 18.532 0.601 1.319 1.7167 2.3983 2.4793 2.3983 2.3099 0 6.507-3.8891 9.252-8.5731 1.4269-2.4348 3.0016-4.4269 3.4993-4.4269 1.6383 0 0.9441 5.2007-1.1454 8.5816-4.2088 6.81-12.248 9.3313-17.238 5.4062-5.3415-4.2017-4.3965-11.827 2.7946-22.551 2.4463-3.6481 3.8152-6.3901 3.0419-6.0934-0.7734 0.29675-2.9078 0.82127-4.7433 1.1656-2.9953 0.56193-3.9666 1.7205-9.4807 11.309-3.3789 5.8754-6.8079 12.691-7.62 15.145-1.804 5.4515-3.4382 6.2026-4.9251 2.2634zm-8.8847-22.749c5.739-5.1848 9.2094-13.476 5.6405-13.476-3.9755 0-15.896 14.518-13.283 16.177 2.213 1.4052 3.6658 0.89182 7.6421-2.7005zm-266.99 22.903c-3.4176-4.119-1.2177-11.52 7.7171-25.964 5.2261-8.4481 5.541-10.067 1.5578-8.0068-5.3841 2.7842-14.829 14.124-19.446 23.346-2.4385 4.8712-4.697 9.5066-5.0189 10.301-0.4787 1.1812-0.863 1.0997-2.1119-0.44783-0.8397-1.0405-1.6555-2.2742-1.8128-2.7416-0.1574-0.46739-2.4999 0.27142-5.2056 1.6418-10.849 5.4949-20.918 1.8488-22.902-8.2932-2.2827-11.67 10.651-30.215 21.072-30.215 4.3587 0 10.25 5.4254 10.25 9.4398 0 3.8746-3.4984 10.076-7.3352 13.002-3.6268 2.7663-9.2237 3.3996-12.858 1.4547-2.7038-1.447-3.7714 0.20114-3.7918 5.8532-0.027 7.6333 5.2149 10.234 12.774 6.3376 5.7274-2.9521 9.4442-7.6225 15.615-19.621 6.8213-13.263 9.9238-17.477 11.634-15.803 0.6649 0.65113 1.0241 2.8812 0.8158 5.065l-0.3721 3.9017 5.187-4.2249c2.8529-2.3237 6.1023-4.5154 7.221-4.8704 3.1095-0.98691 5.9507 1.1014 6.6628 4.8973l0.6393 3.4078 4.4807-3.4202c8.3492-6.3731 12.328-5.9538 12.325 1.299 0 3.9775-0.8628 6.2105-5.1225 13.281-5.5924 9.2834-7.0641 14.769-4.5273 16.874 0.8729 0.7244 2.4579 1.0048 3.6112 0.63875 3.4585-1.0977 8.8226-9.1464 10.056-15.089 2.2508-10.842 12.96-22.423 20.735-22.423 4.3587 0 10.25 5.4254 10.25 9.4398 0 3.8746-3.4984 10.076-7.3352 13.002-3.6268 2.7663-9.2237 3.3996-12.858 1.4547-2.7038-1.447-3.7714 0.20114-3.7918 5.8532-0.027 7.6316 5.211 10.232 12.774 6.3416 5.1179-2.6325 8.4421-6.467 12.216-14.092 5.2355-10.577 12.286-22 13.578-22 1.4363 0 2.4163 2.2613 2.4163 5.5752 0 2.3912 0.039 2.382 4.5769-1.082 5.8735-4.4833 8.9108-5.2667 11.463-2.9567 3.3589 3.0398 2.512 7.761-3.1748 17.699-5.6711 9.91-7.3879 16.967-4.4062 18.111 4.3971 1.6873 9.85-4.9628 18.52-22.587 3.8289-7.783 6.8624-14.197 6.7409-14.252-0.1214-0.0559-1.4582-0.63307-2.9707-1.2826-4.0278-1.7298-3.3733-2.9467 2-3.7184 4.5344-0.65119 4.9146-0.96184 8.3773-6.8438 4.6837-7.9562 6.4112-8.0699 6.2567-0.41169-0.079 3.8984 0.274 5.75 1.095 5.75 1.2472 0 4.521 3.1346 4.521 4.3287 0 0.36919-2.1858 0.67126-4.8573 0.67126h-4.8572l-6.2916 11.59c-8.841 16.287-10.328 21.048-7.9587 25.476 1.5527 2.9012 4.5013 2.3478 8.9619-1.6821 3.3844-3.0576 4.0029-4.2266 4.0029-7.5657 0-2.1722 0.4658-4.8198 1.0352-5.8836 1.2886-2.4079 3.9648-2.5382 3.9648-0.19316 0 2.2221 10.27-13.107 11.843-17.676 1.5807-4.593 3.9642-7.0649 6.8122-7.0649 2.6589 0 2.9007 1.3796 0.8761 5-1.09 1.9492-1.2699 5.3876-0.8168 15.607 0.3746 8.4485 0.1905 14.228-0.5181 16.26l-1.0992 3.1533 2.4561-1.7601c1.3509-0.96805 4.1322-4.2351 6.1807-7.2601 2.7753-4.0981 3.8162-5.0338 4.084-3.6709 0.8899 4.5301-4.0465 12.204-9.7162 15.104-6.9963 3.5785-16.764 2.6841-21.101-1.9322l-2.3691-2.5218-2.5657 2.3884c-3.5221 3.2786-6.4057 4.6328-9.8652 4.6328-3.2571 0-8.2006-3.3592-8.2006-5.5726 0-2.0341-0.6298-1.8192-5.0296 1.7166-5.221 4.1957-12.7 5.1261-15.854 1.9721-4.334-4.334-2.4965-13.144 5.4804-26.275 1.9593-3.2254 3.4099-6.322 3.2235-6.8812-0.626-1.8781-9.6503 4.861-14.098 10.528-2.423 3.0872-6.5218 9.9035-9.1084 15.148-3.948 8.004-4.9366 9.3406-6.1581 8.3269-0.8003-0.6642-1.4551-1.8275-1.4551-2.5852 0-1.7339 0.3707-1.8109-5.4195 1.1266-5.2794 2.6784-12.14 3.2833-15.896 1.4016-1.2014-0.60181-3.1807-2.2765-4.3984-3.7214l-2.2142-2.6272-2.7858 2.5993c-6.3727 5.9458-12.689 6.5944-17.488 1.7959-4.5703-4.5704-3.6801-9.4084 4.0535-22.03 3.4941-5.7023 5.5264-9.9227 4.7782-9.9227-2.1108 0-9.8173 6.5119-14.13 11.94-2.2 2.7688-6.2947 9.3304-9.0993 14.581-4.5783 8.5718-5.2423 9.3747-6.5 7.8589zm145.95-5.13c1.6392-3.1213 2.3553-10.184 1.6493-16.267l-0.69-5.9451-4.9427 7.5715c-5.2224 7.9998-5.3749 9.2021-1.7515 13.809 2.3637 3.005 4.436 3.3058 5.7349 0.83246zm-174.95-17.774c5.739-5.1848 9.2094-13.476 5.6405-13.476-3.9755 0-15.896 14.518-13.283 16.177 2.213 1.4052 3.6658 0.89182 7.6421-2.7005zm88 0c5.739-5.1848 9.2094-13.476 5.6405-13.476-3.9755 0-15.896 14.518-13.283 16.177 2.213 1.4052 3.6658 0.89182 7.6421-2.7005zm-133.89 21.524c-1.2896-1.2896-1.9995-3.3319-1.9986-5.75 0-7.555 5.1173-31.707 7.1471-33.75 0.6609-0.66523 1.6738-0.16702 3.0257 1.4882 2.3961 2.9338 2.2358 5.1331-1.5648 21.459-1.4016 6.021-2.3823 11.113-2.1792 11.316 0.203 0.20302 3.0874-3.5982 6.4098-8.4472 7.316-10.678 19.209-25.499 20.918-26.069 2.1481-0.71605 1.359 3.1764-1.5084 7.44-1.5125 2.249-6.35 8.5281-10.75 13.954-4.4 5.4255-9.5094 12.226-11.354 15.112-3.6542 5.7164-5.1002 6.2929-8.1458 3.2473zm296 0c-1.2896-1.2896-1.9995-3.3319-1.9986-5.75 0-7.555 5.1173-31.707 7.1471-33.75 0.6609-0.66523 1.6738-0.16702 3.0257 1.4882 2.3961 2.9338 2.2358 5.1331-1.5648 21.459-1.4016 6.021-2.3823 11.113-2.1792 11.316 0.203 0.20302 3.0874-3.5982 6.4098-8.4472 7.316-10.678 19.209-25.499 20.918-26.069 2.1481-0.71605 1.359 3.1764-1.5084 7.44-1.5125 2.249-6.35 8.5281-10.75 13.954-4.4 5.4255-9.5094 12.226-11.354 15.112-3.6542 5.7164-5.1002 6.2929-8.1458 3.2473zm-31.896-2.5348c-3.0688-3.4952-3.6147-5.6471-3.1619-12.465 0.5166-7.781 7.9351-19.29 14.416-22.366 5.6778-2.6943 8.4834-2.1391 12.796 2.5319 3.2292 3.4978 3.8464 4.8618 3.8464 8.5 0 2.7833 0.4472 4.345 1.25 4.3654 0.7634 0.0194 0.5688 0.54895-0.5 1.3602-0.9625 0.73064-1.75 1.8592-1.75 2.508 0 1.8282-3.9965 9.2672-6.7692 12.6-3.9366 4.7317-7.2808 6.4862-12.377 6.4934-4.0708 0.006-5.0309-0.43133-7.75-3.5282zm11.736-3.8598c3.1986-2.9745 8.1607-11.291 8.1607-13.678 0-0.62639-1.125-2.4759-2.5-4.11s-2.5-3.6116-2.5-4.3944c0-4.1352-5.9351 1.9956-9.5201 9.834-2.9865 6.5299-3.7674 14.329-1.5706 15.687 1.9279 1.1916 3.9938 0.32192 7.93-3.3385zm10.161-22.605c0-4.2044-1.4289-5.3747-2.488-2.0378-0.5613 1.7685 0.8693 6.0378 2.0232 6.0378 0.2556 0 0.4648-1.8 0.4648-4zm-454.42-10.912c-2.0931-2.3128-1.7564-6.9633 0.6115-8.4455 1.2919-0.80872 2.1777-0.61878 3.75 0.80413 2.2638 2.0487 2.613 4.6484 1.0233 7.6187-1.3127 2.4528-3.1785 2.4606-5.3848 0.0227zm339.47-52.751c-1.1519-1.4644-2.3684-3.7545-2.7034-5.0892-1.0342-4.1203 0.327-13.764 3.1312-22.184 4.4821-13.459 21.958-46.779 32.591-62.138 2.0733-2.995 3.9307-1.7271 3.9307 2.6831 0 4.0766-0.5127 5.1544-11.744 24.689-7.4756 13.003-8.316 14.944-6.927 16 2.1175 1.6104 3.6707 6.0286 3.6707 10.442v3.6092l2.5455-2.3914c1.4-1.3152 3.7625-4.3179 5.25-6.6725 3.1644-5.0091 4.2045-5.3635 4.2045-1.4326 0 3.8121-3.6258 8.9843-8.6757 12.376-3.4824 2.3388-4.3163 3.5872-5.3577 8.021-1.5473 6.5873-6.2148 17.077-9.5368 21.432-3.2456 4.2552-7.3443 4.5144-10.379 0.65656zm11.261-15.131c4.1577-10.751 4.1977-11.453 0.7625-13.384l-2.9847-1.6778-1.9344 5.1778c-4.6139 12.349-6.1994 20.3-4.4059 22.094 1.2924 1.2924 5.8593-5.2197 8.5625-12.209zm5.6026-22.207c0.03-1.925-0.35-4.1398-0.8449-4.9218-1.5634-2.4701-3.3327 6.1217-1.9717 9.5743 1.0407 2.6401 1.1822 2.7018 1.942 0.84746 0.4508-1.1 0.8444-3.575 0.8746-5.5zm102.1 8.75c0.021-5.5828 6.7888-15.302 24.894-35.75 10.006-11.3 27.268-29 28.284-29 0.4456 0 0.8101 1.5122 0.8101 3.3604 0 4.3646-2.9922 8.6977-14.876 21.542-15.541 16.798-27.301 30.155-32.441 36.848-2.6399 3.4375-5.2236 6.25-5.7414 6.25-0.5179 0-0.9362-1.4625-0.9296-3.25zm-448.92 0.98526c-4.6166-2.3726-6.6012-6.3347-6.5426-13.062 0.081-9.3349 5.9567-19.544 13.94-24.223 6.0684-3.5563 9.602-3.2437 13.498 1.1938 3.5815 4.079 3.5844 5.6036 0.026 13.606-2.3631 5.3142-4.4754 6.0362-6.252 2.1371-0.9922-2.1776-0.8342-3.5914 0.9485-8.4861 1.359-3.7315 1.7699-6.1013 1.1267-6.4988-1.9053-1.1776-11.457 9.9546-13.712 15.98-3.6725 9.8156-2.1373 17.618 3.4665 17.618 6.9568 0 17.458-9.234 19.847-17.453 3.0676-10.552 11.04-19.266 18.548-20.273 3.7949-0.50901 4.3307-0.25862 8.0374 3.7565 3.3559 3.6351 3.9715 4.9736 3.9715 8.6355 0 2.7833 0.4472 4.345 1.25 4.3654 0.7634 0.0194 0.5688 0.54895-0.5 1.3602-0.9625 0.73064-1.75 1.8592-1.75 2.508 0 1.8282-3.9965 9.2672-6.7692 12.6-3.9366 4.7317-7.2808 6.4862-12.377 6.4934-4.0708 0.006-5.0309-0.43133-7.75-3.5282-1.707-1.9441-3.1036-4.0574-3.1036-4.6962 0-0.63876-1.4625 0.25144-3.25 1.9782-6.4252 6.2069-16.86 8.9652-22.654 5.988zm40.743-7.1299c3.1986-2.9745 8.1607-11.291 8.1607-13.678 0-0.62639-1.125-2.4759-2.5-4.11s-2.5-3.6116-2.5-4.3944c0-4.1352-5.9351 1.9956-9.5201 9.834-2.9865 6.5299-3.7674 14.329-1.5706 15.687 1.9279 1.1916 3.9938 0.32192 7.93-3.3385zm10.161-22.605c0-4.2044-1.4289-5.3747-2.488-2.0378-0.5613 1.7685 0.8693 6.0378 2.0232 6.0378 0.2556 0 0.4648-1.8 0.4648-4zm59.893 29.503c-1.4337-0.77926-3.3518-2.554-4.2625-3.9438l-1.6558-2.527-4.5641 3.4839c-3.7276 2.8453-5.4319 3.4839-9.2989 3.4839-4.6321 0-8.2768-1.9945-9.3103-5.0948-0.2609-0.78272-1.9314-0.0994-4.752 1.9439-3.4079 2.4687-5.3458 3.144-8.9497 3.1191-5.2684-0.0364-7.5614-1.4214-9.1139-5.5048-3.0614-8.0521 5.7066-30.954 18.205-47.552 3.1429-4.1736 6.3889-8.1482 7.2135-8.8326 2.3212-1.9264 5.3545-0.33887 6.6076 3.4581 2.516 7.6237-4.7063 21.473-17.049 32.692-6.1598 5.5993-7.0602 6.9011-8.4137 12.165-1.9885 7.733-1.2826 10.606 2.606 10.606 2.179 0 4.1856-1.2464 7.758-4.8187 3.9974-3.9974 5.2827-6.2559 7.5405-13.25 1.497-4.6372 4.5894-12.031 6.8721-16.431 3.9277-7.5708 13.821-21.718 17.078-24.421 2.3212-1.9264 5.3545-0.33887 6.6076 3.4581 2.516 7.6237-4.7063 21.473-17.049 32.692-6.1598 5.5993-7.0602 6.9011-8.4137 12.165-1.9113 7.4328-1.249 10.606 2.214 10.606 5.3837 0 13.391-8.8465 14.667-16.204 0.8953-5.1633 7.3981-14.435 12.551-17.896 6.0102-4.0365 10.226-3.8924 14.618 0.49963 3.9647 3.9647 4.2961 6.9233 1.4092 12.582-3.8597 7.5658-12.133 11.163-18.202 7.9148-2.7038-1.447-3.7714 0.20114-3.7918 5.8532-0.018 4.9586 2.5852 8.25 6.5245 8.25 6.2542 0 16.676-8.6946 17.98-15 1.648-7.9685 7.7051-16.876 13.974-20.55 6.0684-3.5563 9.602-3.2437 13.498 1.1938 3.5815 4.079 3.5844 5.6036 0.026 13.606-2.3631 5.3142-4.4754 6.0362-6.252 2.1371-0.9922-2.1776-0.8342-3.5914 0.9485-8.4861 1.359-3.7315 1.7699-6.1013 1.1267-6.4988-0.5567-0.34409-3.3904 1.8297-6.297 4.8306-8.1463 8.4105-11.916 20.937-7.9881 26.545 4.4505 6.354 18.006-1.9326 23.252-14.214 1.4245-3.335 4.3188-9.3827 6.4317-13.439 2.1129-4.0566 3.7107-7.4529 3.5506-7.5475s-1.5286-0.70343-3.0411-1.353c-4.0278-1.7298-3.3733-2.9467 2-3.7184 4.5344-0.65119 4.9146-0.96184 8.3773-6.8438 4.6837-7.9562 6.4112-8.0699 6.2567-0.41169-0.079 3.8984 0.274 5.75 1.095 5.75 1.2472 0 4.521 3.1346 4.521 4.3287 0 0.36919-2.1858 0.67126-4.8573 0.67126h-4.8572l-6.2916 11.59c-6.7075 12.356-8.8795 17.507-8.95 21.226-0.066 3.4772 1.7617 6.1843 4.1751 6.1843 3.2696 0 10.94-8.6937 13.393-15.18 2.725-7.2053 11.413-21.82 12.972-21.82 0.6613 0 1.4755 0.7118 1.8093 1.5818 1.341 3.4945 0.3684 7.3003-3.8946 15.241-7.4519 13.88-8.8334 20.178-4.4262 20.178 4.5774 0 11.385-9.1269 13.834-18.548 1.3545-5.2096 6.4161-12.834 10.678-16.085 1.8371-1.4012 5.1699-2.7931 7.4062-3.0931 3.7949-0.50901 4.3307-0.25862 8.0374 3.7565 3.3559 3.6351 3.9715 4.9736 3.9715 8.6355 0 2.7833 0.4472 4.345 1.25 4.3654 0.7634 0.0194 0.5688 0.54895-0.5 1.3602-0.9625 0.73064-1.75 1.8592-1.75 2.508 0 1.8282-3.9965 9.2672-6.7692 12.6-3.9366 4.7317-7.2808 6.4862-12.377 6.4934-4.1024 0.006-5.0234-0.42281-7.8665-3.6609-2.7712-3.1562-3.3487-3.4378-4.1424-2.0194-1.5333 2.7398-9.2622 6.6869-13.094 6.6869-2.7333 0-4.1597-0.697-6.0684-2.9654-2.1872-2.5993-2.6521-2.7763-3.7661-1.4341-5.1757 6.2364-15.418 5.4703-18.01-1.347l-0.9675-2.5447-2.2194 2.0835c-3.3803 3.1733-10.753 6.1629-15.219 6.1709-5.1112 0.009-8.3864-1.671-11.097-5.6928-2.118-3.143-2.1883-3.1655-3.9149-1.2577-5.2288 5.7778-17.719 8.6841-23.595 5.4903zm113.95-6.8977c3.1986-2.9745 8.1607-11.291 8.1607-13.678 0-0.62639-1.125-2.4759-2.5-4.11s-2.5-3.6116-2.5-4.3944c0-4.1352-5.9351 1.9956-9.5201 9.834-2.9865 6.5299-3.7674 14.329-1.5706 15.687 1.9279 1.1916 3.9938 0.32192 7.93-3.3385zm-101.94-15.129c5.739-5.1848 9.2094-13.476 5.6405-13.476-3.9755 0-15.896 14.518-13.283 16.177 2.213 1.4052 3.6658 0.89182 7.6421-2.7005zm112.11-7.4765c0-4.2044-1.4289-5.3747-2.488-2.0378-0.5613 1.7685 0.8693 6.0378 2.0232 6.0378 0.2556 0 0.4648-1.8 0.4648-4zm-151.3-12.8c1.6389-3.1151 3.2766-6.7888 3.6392-8.1638 0.5952-2.2571 0.339-2.1467-2.6366 1.1361-3.3688 3.7166-12.236 17.974-13.335 21.44-1.1159 3.5204 9.3046-8.6578 12.332-14.413zm23 0c1.6389-3.1151 3.2766-6.7888 3.6392-8.1638 0.5952-2.2571 0.339-2.1467-2.6366 1.1361-3.3688 3.7166-12.236 17.974-13.335 21.44-1.1159 3.5204 9.3046-8.6578 12.332-14.413zm133.41 42.636c-2.2947-2.2947-1.3357-9.0733 2.3807-16.828 5.1525-10.752 12.602-22.972 14.003-22.972 1.4363 0 2.4163 2.2613 2.4163 5.5752 0 2.3912 0.039 2.382 4.5769-1.082 5.8735-4.4833 8.9108-5.2667 11.463-2.9567 3.3533 3.0347 2.5114 7.7621-3.1416 17.641-6.6305 11.587-7.6342 18.706-2.6516 18.808 1.5125 0.031 8.4415-6.9914 10.296-10.434 1.9586-3.637 4.4572-4.7641 4.4572-2.0106 0 2.9522-4.0071 9.3638-7.5329 12.053-4.9113 3.746-12.386 4.4877-15.351 1.5232-4.334-4.334-2.4965-13.144 5.4804-26.275 1.9593-3.2254 3.4099-6.322 3.2235-6.8812-0.626-1.8781-9.6503 4.861-14.098 10.528-2.423 3.0872-6.5029 9.8652-9.0664 15.062-2.5635 5.1971-4.7946 9.4493-4.9581 9.4493-0.1634 0-0.8371-0.54-1.4971-1.2zm148.22-0.68547c-9.6842-5.9054-6.4878-19.957 11.228-49.361 8.0491-13.359 10.634-15.072 10.616-7.0335-0.01 4.6041-1.1974 7.3014-10.246 23.28-7.3454 12.972-11.657 24.413-10.534 27.953 1.7983 5.6659 8.9288 4.04 15.052-3.4321 1.8976-2.3157 8.4561-13.393 14.574-24.616 12.018-22.044 15.83-28.259 17.389-28.348 0.55-0.0313 1.1379 2.0988 1.3064 4.7336 0.2731 4.2678-0.4449 6.2318-6.5797 18-13.773 26.421-20.839 36.396-27.859 39.329-4.6533 1.9443-11.299 1.7197-14.947-0.50519zm103 0c-9.6842-5.9054-6.4878-19.957 11.228-49.361 8.0491-13.359 10.634-15.072 10.616-7.0335-0.01 4.6041-1.1974 7.3014-10.246 23.28-7.3454 12.972-11.657 24.413-10.534 27.953 1.7983 5.6659 8.9288 4.04 15.052-3.4321 1.8976-2.3157 8.4561-13.393 14.574-24.616 12.018-22.044 15.83-28.259 17.389-28.348 0.55-0.0313 1.1379 2.0988 1.3064 4.7336 0.2731 4.2678-0.4449 6.2318-6.5797 18-13.773 26.421-20.839 36.396-27.859 39.329-4.6533 1.9443-11.299 1.7197-14.947-0.50519zm-562.78 0.19162c-1.191-1.191-0.6479-6.2625 1.1881-11.095 1.5145-3.9858 1.6002-5.0225 0.5-6.0502-2.0984-1.9602-1.5598-3.1606 1.4224-3.1699 2.3315-0.007 3.4282-1.1078 7.2065-7.2313 6.203-10.053 17.91-25.322 23.88-31.147 5.6989-5.5595 7.4466-5.5728 9.744-0.0743 1.3993 3.3488 1.309 4.2008-1.4743 13.91-1.6307 5.6884-3.4957 13.041-4.1444 16.338-1.1032 5.6075-1.0431 6.1318 0.9292 8.1041 2.8201 2.8201 2.6568 3.9128-0.6413 4.2923-2.6717 0.30741-2.7742 0.55127-3.6001 8.5664-0.4675 4.5375-1.2295 8.25-1.6933 8.25-2.2108 0-3.9566-4.7629-3.9566-10.794v-6.3494l-5.75 0.60753c-15.421 1.6294-13.905 0.90077-17.745 8.5262-3.5048 6.9597-4.714 8.4679-5.8656 7.3163zm30.927-26.196c0.3327-1.9855 1.6541-8.1098 2.9364-13.609 1.2822-5.4997 2.1761-10.155 1.9863-10.344-0.6576-0.65767-21.49 27.21-21.49 28.747 0 0.3715 3.5914 0.25718 7.9809-0.25406l7.981-0.92951 0.6049-3.6101zm347.54 23.355c-3.0688-3.4952-3.6147-5.6471-3.1619-12.465 0.5166-7.781 7.9351-19.29 14.416-22.366 5.6778-2.6943 8.4834-2.1391 12.796 2.5319 3.2292 3.4978 3.8464 4.8618 3.8464 8.5 0 2.7833 0.4472 4.345 1.25 4.3654 0.7634 0.0194 0.5688 0.54895-0.5 1.3602-0.9625 0.73064-1.75 1.8592-1.75 2.508 0 1.8282-3.9965 9.2672-6.7692 12.6-3.9366 4.7317-7.2808 6.4862-12.377 6.4934-4.0708 0.006-5.0309-0.43133-7.75-3.5282zm11.736-3.8598c3.1986-2.9745 8.1607-11.291 8.1607-13.678 0-0.62639-1.125-2.4759-2.5-4.11s-2.5-3.6116-2.5-4.3944c0-4.1352-5.9351 1.9956-9.5201 9.834-2.9865 6.5299-3.7674 14.329-1.5706 15.687 1.9279 1.1916 3.9938 0.32192 7.93-3.3385zm10.161-22.605c0-4.2044-1.4289-5.3747-2.488-2.0378-0.5613 1.7685 0.8693 6.0378 2.0232 6.0378 0.2556 0 0.4648-1.8 0.4648-4zm98.37 28.521c-0.3389-0.88306-0.3972-3.8838-0.1297-6.6683 0.8272-8.609 25.058-54.353 28.791-54.353 1.1014 0 1.4577 1.25 1.4252 5-0.038 4.3543-1.0887 6.8726-8.1371 19.5-4.4515 7.975-10.606 19.527-13.676 25.672-5.8266 11.661-7.2474 13.524-8.2739 10.849zm103.63-2.4112c0-4.4138 4.2464-10.778 14.855-22.263 3.3799-3.6593 6.1453-7.5521 6.1453-8.6506 0-1.6849-3.3299-22.395-4.2151-26.216-0.5756-2.4842 2.2864-2.0622 5.1007 0.75209 2.7756 2.7756 3.1336 3.8636 5.6995 17.32 0.4558 2.3899 1.2154 1.8365 12.01-8.75 6.3379-6.2157 11.947-11.301 12.464-11.301 1.2978 0 1.1835 5.653-0.1682 8.3157-0.6099 1.2013-5.9766 7.1343-11.926 13.184l-10.817 11 1.4975 8.497c1.3179 7.4778 3.3765 14.656 5.8083 20.253 0.6041 1.3902 0.2758 1.7435-1.5966 1.7182-4.9372-0.0666-8.1479-5.0512-10.491-16.287-0.8183-3.925-1.6049-7.2532-1.7478-7.3962-0.3269-0.32692-13.071 13.783-17.58 19.465-1.8552 2.3375-3.7478 4.25-4.2058 4.25-0.4579 0-0.8326-1.7505-0.8326-3.89zm-324.42-37.022c-2.0931-2.3128-1.7564-6.9633 0.6115-8.4455 1.2919-0.80872 2.1777-0.61878 3.75 0.80413 2.2638 2.0487 2.613 4.6484 1.0233 7.6187-1.3127 2.4528-3.1785 2.4606-5.3848 0.0227zm303.8-57.527c-3.5751-1.5542-7.0249-5.8037-10.746-13.237-5.2259-10.439-5.4169-18.883-0.7103-31.411 7.2176-19.212 23.297-34.411 50.057-47.317l11.388-5.4923 3.7969-9.1217 3.7968-9.1217-2.7306 2.1259c-7.5529 5.8804-14.895 10.018-19.676 11.088-10.023 2.2431-18.534-0.7641-23.418-8.274l-2.3637-3.6346-4.6363 3.2993c-8.7606 6.2342-15.088 8.8104-22.897 9.3224-6.6326 0.43487-7.8147 0.20311-13.672-2.6803-6.8767-3.3854-11.514-8.8567-13.705-16.172l-1.0963-3.659-7.1333 7.2085c-9.4665 9.5664-18.954 14.39-29.936 15.221-5.8844 0.44504-8.6934 0.1849-12.116-1.122-5.5886-2.1343-11.118-8.1596-12.644-13.778-1.6966-6.2454-0.6059-18.004 2.534-27.317 3.651-10.829 16.636-37.099 26.29-53.186 9.7978-16.327 12.795-20.303 15.304-20.303 4.8776 0 8.2002 12.766 5.9453 22.842-0.6881 3.0746-3.9554 10.78-7.2608 17.124-19.349 37.134-22.618 44.055-24.226 51.279-3.6153 16.25 3.6607 21.029 17.78 11.677 9.2622-6.135 18.49-18.79 27.689-37.969 3.021-6.2993 11.656-23.716 19.188-38.703 13.26-26.386 13.613-27.25 11.123-27.25-7.364 0-17.694-6.2598-17.108-10.367 0.2888-2.0247 1.0005-2.1628 14.069-2.7307 7.5706-0.32897 13.922-0.77897 14.114-1 0.1921-0.22104 2.5204-4.2269 5.1742-8.9019 6.5681-11.571 16.725-27.201 18.756-28.862 6.6452-5.4351 9.7487 14.191 4.4266 27.993l-2.5571 6.6314 4.8684 0.46779c5.3463 0.51371 10.552 3.7842 12.846 8.0702 2.6408 4.9345 1.2597 5.6892-10.612 5.7989-5.9298 0.0548-11.906 0.40965-13.281 0.78849-2.7902 0.76878-11.534 15.209-29.13 48.112-15.166 28.357-19.15 40.515-16.872 51.487 1.7653 8.5036 6.9673 12.493 14.458 11.088 7.0177-1.3165 22.875-16.125 24.077-22.485 3.3586-17.768 24.755-61.023 40.51-81.897 4.7379-6.2771 7.506-6.3475 10.855-0.27624 2.9588 5.3638 3.2405 13.155 0.7467 20.656-0.9275 2.7895-5.5339 11.565-10.236 19.5-19.784 33.384-26.981 53.381-21.851 60.706 3.3165 4.735 12.314 1.3693 20.778-7.7718 10.426-11.261 18.933-24.604 36.666-57.506 18.676-34.653 22.506-40.5 26.522-40.5 4.6572 0 7.5956 13.547 5.0353 23.214-0.8324 3.1425-6.985 16.643-13.672 30-14.673 29.308-28.086 57.919-27.449 58.555 0.5886 0.58864 9.399-4.7571 16.564-10.05 12.165-8.987 19.235-15.905 32.743-32.039 1.2338-1.4737 2.9754-2.6795 3.8702-2.6795 1.3662 0 1.5586 0.94199 1.2015 5.8798-0.5612 7.7581-4.9553 15.201-14.815 25.095-7.9941 8.0214-19.237 15.065-36.458 22.841l-8.9579 4.0447-9.0836 20.347c-15.402 34.5-25.691 52.056-37.446 63.896-9.6483 9.7183-18.12 13.309-24.676 10.459zm7.9245-21.523c6.4697-6.9881 13.984-18.205 22.468-33.539 6.3154-11.414 13.688-27.374 12.975-28.087-0.7352-0.73525-9.9274 5.8606-16.076 11.535-16.328 15.07-28.67 36.531-28.67 49.853 0 8.2373 1.853 8.2846 9.3036 0.23701zm66.696-27.539c0-1.3186 7.5891-1.4865 62.75-1.3881 34.512 0.0616 67.025 0.40117 72.25 0.75469 9.0884 0.61492 8.6767 0.67494-9.5 1.3852-10.45 0.40836-42.962 0.74375-72.25 0.7453-46.668 0.002-53.25-0.18258-53.25-1.4972zm-736.5-2.481-36-0.51901 28.913-0.75c15.902-0.4125 164.74-0.75 330.75-0.75 267.63 0 301.84 0.16998 301.84 1.5 0 1.3305-33.314 1.4739-294.75 1.269-162.11-0.12705-310.95-0.46455-330.75-0.75zm22.658-52.566c-6.7453-6.0646-10.146-13.16-10.832-22.605-1.3128-18.058 12.176-93.576 24.264-135.85 6.3559-22.226 8.733-25.568 13.462-18.928 4.6831 6.5768 6.0837 17.198 3.8896 29.494-0.5823 3.2635-4.3899 21.234-8.4614 39.934-4.0714 18.7-9.2304 43.9-11.464 56-2.234 12.1-4.2479 22.9-4.4753 24-0.4134 2-0.4134 2 1.0416 0 0.8003-1.1 7.873-11.675 15.717-23.5 34.125-51.442 94.711-129 100.77-129 2.9445 0 4.2328 3.6642 3.6619 10.415-1.1068 13.089-5.6089 20.802-31.859 54.585-32.96 42.417-59.787 78.856-75.831 103-9.0648 13.641-11.754 17-13.608 17-0.6696 0-3.4935-2.0463-6.2753-4.5474zm270.56 2.5224c-8.6691-2.1939-15.703-7.352-20.828-15.274-2.0634-3.1892-4.0434-7.1267-4.3999-8.75-0.3565-1.6232-0.7516-2.9514-0.878-2.9514s-2.5017 2.1898-5.2785 4.8663c-10.004 9.643-23.853 17.542-36.333 20.723-9.4906 2.4193-22.159 1.5462-29.47-2.0312-6.9542-3.4024-13.342-9.7496-16.413-16.308l-2.3838-5.091-3.7477 4.7412c-9.1322 11.553-21.782 18.861-34.287 19.807-5.8844 0.44504-8.6934 0.1849-12.116-1.122-5.5886-2.1343-11.118-8.1596-12.644-13.778-1.6966-6.2454-0.6059-18.004 2.534-27.317 3.651-10.829 16.636-37.099 26.29-53.186 9.7978-16.327 12.795-20.303 15.304-20.303 4.8776 0 8.2002 12.766 5.9453 22.842-0.6881 3.0746-3.9554 10.78-7.2608 17.124-19.349 37.134-22.618 44.055-24.226 51.279-2.0158 9.0606-1.2047 13.627 2.7618 15.549 7.6756 3.7196 21.201-5.9623 32.672-23.387 5.5102-8.3706 6.266-10.289 8.3208-21.12 1.8525-9.7642 8.2848-23.937 15.794-34.799 7.3992-10.703 20.234-22.543 29.288-27.018 13.285-6.5657 23.356-4.8168 34.076 5.9174 8.3133 8.3245 9.6634 16.814 4.6293 29.111-10.578 25.84-11.885 27.63-17.489 23.958-8.0129-5.2503-9.0917-15.671-3.1085-30.027 6.3166-15.156 7.1627-18.23 5.4783-19.906-2.4091-2.3961-9.2111 1.4911-17.908 10.234-18.672 18.77-32.094 47.733-30.784 66.423 0.5385 7.6806 3.8052 15.168 7.9207 18.154 6.3523 4.6098 19.936 2.5103 32.71-5.0556 12.324-7.3001 29.115-25.276 29.115-31.171 0-8.069 7.1446-25.543 15.715-38.434 12.79-19.239 31.666-32.677 45.9-32.677 7.8895 0 18.698 6.9283 25.537 16.369 2.5017 3.4535 2.8474 4.8041 2.8474 11.124 0 12.499-5.6084 24.415-16.475 35.007-7.8237 7.6252-14.383 10.765-23.605 11.299-8.6493 0.5007-13.163-0.60759-20.007-4.9129-2.5232-1.5871-4.8372-2.8856-5.1423-2.8856-1.2912 0-4.1629 15.071-4.1299 21.673 0.071 14.184 7.7008 23.327 19.466 23.327 6.7452 0 16.403-3.3084 23.893-8.1852 8.2793-5.3903 21.079-18.263 27.426-27.582 2.7096-3.9782 5.467-7.2331 6.1276-7.2331 2.5035 0 3.7233 2.9592 3.0986 7.5171-2.0972 15.301-23.487 35.15-45.325 42.059-5.8718 1.8578-23.408 2.7151-28.61 1.3986zm18.102-58.979c14.958-6.788 36.444-43.556 27.173-46.498-5.4493-1.7295-20.925 9.8562-31.582 23.644-4.5197 5.8474-12.372 19.482-12.397 21.525-0.018 1.5172 4.549 3.1602 8.9859 3.2324 1.925 0.0313 5.4436-0.82505 7.8191-1.9031zm160.68 56.878c-19.117-2.3851-34.077-17.16-39.114-38.63-2.4467-10.43-1.4606-33.696 1.968-46.434 6.4698-24.037 19.003-45.523 38.514-66.026 20.461-21.501 43.474-33.726 63.566-33.769 9.0249-0.0192 13.776 2.2849 21.162 10.263 8.147 8.7997 11.414 16.197 11.359 25.723-0.024 4.125-0.6593 9.075-1.4125 11-3.7937 9.696-14.175 34.657-14.868 35.75-1.2169 1.9186-3.2198 1.5038-6.6419-1.3758-9.0324-7.6002-9.3327-18.152-1.1171-39.255 2.8652-7.3592 5.4644-15.534 5.7761-18.166 0.4993-4.2155 0.259-5.0935-2.0171-7.3695-3.1032-3.1033-4.5679-3.1729-12.82-0.6098-22.465 6.9781-52.001 34.538-68.617 64.026-7.2492 12.865-13.417 32.642-15.232 48.84-3.375 30.122 9.2923 50.447 28.88 46.338 16.515-3.4641 32.513-18.043 47.708-43.476 6.4881-10.86 8.7275-12.412 11.11-7.7024 0.6957 1.375 1.2715 5.242 1.2796 8.5934 0.045 18.662-16.896 40.009-38.82 48.917-4.6974 1.9087-20.754 4.9361-23.14 4.3627-0.2894-0.0696-3.6762-0.5195-7.5262-0.99985zm-301.8-114.48c-3.4158-1.8513-7.6554-10.391-7.638-15.386 0.016-4.4572 3.1937-11.515 5.8175-12.919 7.4881-4.0075 17.151 4.898 17.151 15.807 0 11.145-7.119 16.949-15.33 12.498zm439 0c-3.4158-1.8513-7.6554-10.391-7.638-15.386 0.016-4.4572 3.1937-11.515 5.8175-12.919 7.4881-4.0075 17.151 4.898 17.151 15.807 0 11.145-7.119 16.949-15.33 12.498zm-285.1-106.78c-7.6351-2.8431-11.655-8.5695-11.655-16.602 0-8.9065 4.8836-14.813 14.07-17.017 6.4158-1.5391 14.634-0.003 18.702 3.4967l2.697 2.3199-2.4095 1.9511c-2.4015 1.9446-2.4209 1.9433-5.8739-0.39995-6.9113-4.6902-16.753-2.0054-19.871 5.4209-4.6532 11.082 9.5245 20.898 19.957 13.819l3.5504-2.4094 2.1047 2.2403c2.003 2.1322 2.0194 2.3147 0.3391 3.7809-4.861 4.2415-15.046 5.8439-21.61 3.3997zm41-0.001c-7.4966-2.7893-11.886-8.9199-11.886-16.601 0-11.729 10.652-19.713 22.938-17.192 6.5345 1.3408 10.733 4.403 13.296 9.698 5.5673 11.501-1.9537 23.952-15.144 25.071-3.2821 0.27853-6.8485-0.0996-9.2034-0.9758zm13.378-6.118c3.476-1.7976 5.9673-6.1743 5.9673-10.483 0-11.718-15.666-16.454-22.439-6.7832-1.7868 2.551-2.0721 9.9592-0.4969 12.902 2.7523 5.1427 11.241 7.3257 16.969 4.3638zm153.62 6.118c-7.4966-2.7893-11.886-8.9199-11.886-16.601 0-11.729 10.652-19.713 22.938-17.192 6.5345 1.3408 10.733 4.403 13.296 9.698 5.5673 11.501-1.9537 23.952-15.144 25.071-3.2821 0.27853-6.8485-0.0996-9.2034-0.9758zm13.378-6.118c3.476-1.7976 5.9673-6.1743 5.9673-10.483 0-11.718-15.666-16.454-22.439-6.7832-1.7868 2.551-2.0721 9.9592-0.4969 12.902 2.7523 5.1427 11.241 7.3257 16.969 4.3638zm-322.94 2.7668c-3.0419-11.58-7.092-28.286-7.092-29.255 0-0.66079 1.3158-0.99307 3.2016-0.8085 3.183 0.31153 3.2172 0.37456 5.8647 10.813 2.9996 11.827 2.7073 11.944 7.0121-2.7862 2.3746-8.1254 2.4793-8.2807 5.3926-8 2.828 0.27244 3.1169 0.75266 6 9.974 1.666 5.3283 3.2833 9.9326 3.5942 10.232 0.3109 0.29924 1.6122-4.1728 2.8918-9.9378l2.3266-10.482h3.3582c1.847 0 3.3582 0.47632 3.3582 1.0585s-1.374 6.5447-3.0534 13.25c-5.4157 21.623-4.5989 19.692-8.3265 19.692h-3.3027l-3.2657-10.636c-2.0627-6.7176-3.5605-10.159-4.0658-9.3413-0.4401 0.712-2.0415 5.4981-3.5587 10.636-2.7584 9.3408-2.7587 9.3413-6.0543 9.3413-2.9667 0-3.3942-0.37448-4.2809-3.75zm40.908-13.25v-17h10.5 10.5v3 3h-7-7v3.5 3.5h7 7v3 3h-7-7v4.5 4.5h7 7v3 3h-10.5-10.5v-17zm27 0v-17h3.5 3.5v14 14h5.5c5.4444 0 5.5 0.0303 5.5 3v3h-9-9v-17zm105.05 15.25c0.027-0.9625 1.2856-8.5 2.7978-16.75l2.7493-15 3.5883-0.30357 3.5883-0.30357 3.1209 8.8036c5.8942 16.627 5.121 16.397 10.041 2.984l4.2843-11.68h3.391c1.865 0 3.3909 0.15085 3.3909 0.33523s1.3465 7.2719 2.9923 15.75c1.6457 8.4781 2.9957 16.006 3 16.728 0.01 0.87873-1.0589 1.2097-3.2153 1l-3.223-0.31336-2.0748-10.5-2.0748-10.5-3.9147 10.75c-3.8567 10.591-3.9616 10.75-7.0934 10.75-3.1357 0-3.2302-0.14452-6.9841-10.681-4.2368-11.892-4.1073-11.941-6.4358 2.4308l-1.3368 8.25h-3.3198c-2.5135 0-3.308-0.42504-3.2714-1.75zm48.952-15.25v-17h10.5 10.5v3 3h-7-7v3.5 3.5h7 7v3 3h-7-7v4.5 4.5h7 7v3 3h-10.5-10.5v-17zm59 3v-14h-3c-2.6667 0-3-0.33333-3-3v-3h10 10v3c0 2.7619-0.2778 3-3.5 3h-3.5v14 14h-3.5-3.5v-14z"/>
 </g>
</svg>
